<?xml version="1.0" encoding="UTF-8" standalone="no"?>
<!-- Created with Inkscape (http://www.inkscape.org/) -->

<svg
   xmlns:dc="http://purl.org/dc/elements/1.1/"
   xmlns:cc="http://creativecommons.org/ns#"
   xmlns:rdf="http://www.w3.org/1999/02/22-rdf-syntax-ns#"
   xmlns:svg="http://www.w3.org/2000/svg"
   xmlns="http://www.w3.org/2000/svg"
   xmlns:sodipodi="http://sodipodi.sourceforge.net/DTD/sodipodi-0.dtd"
   xmlns:inkscape="http://www.inkscape.org/namespaces/inkscape"
   id="svg2"
   version="1.1"
   inkscape:version="0.48.2 r9819"
   width="113.75"
   height="87.5"
   xml:space="preserve"
   sodipodi:docname="logo-isg.eps"><metadata
     id="metadata8"><rdf:RDF><cc:Work
         rdf:about=""><dc:format>image/svg+xml</dc:format><dc:type
           rdf:resource="http://purl.org/dc/dcmitype/StillImage" /><dc:title></dc:title></cc:Work></rdf:RDF></metadata><defs
     id="defs6" /><sodipodi:namedview
     pagecolor="#ffffff"
     bordercolor="#666666"
     borderopacity="1"
     objecttolerance="10"
     gridtolerance="10"
     guidetolerance="10"
     inkscape:pageopacity="0"
     inkscape:pageshadow="2"
     inkscape:window-width="640"
     inkscape:window-height="480"
     id="namedview4"
     showgrid="false"
     inkscape:zoom="2.6971429"
     inkscape:cx="56.875"
     inkscape:cy="43.75"
     inkscape:window-x="0"
     inkscape:window-y="22"
     inkscape:window-maximized="0"
     inkscape:current-layer="g10" /><g
     id="g10"
     inkscape:groupmode="layer"
     inkscape:label="ink_ext_XXXXXX"
     transform="matrix(1.25,0,0,-1.25,0,87.5)"><g
       id="g12"
       transform="scale(0.1,0.1)"><path
         d="m 93.3203,22.9453 c 0,5.0469 -4.0976,9.1406 -9.1445,9.1406 -5.0469,0 -9.1446,-4.0937 -9.1446,-9.1406 0,-5.0469 4.0977,-9.1445 9.1446,-9.1445 5.0469,0 9.1445,4.0976 9.1445,9.1445"
         style="fill:#000000;fill-opacity:1;fill-rule:nonzero;stroke:none"
         id="path14" /><path
         d="m 337.438,77.7539 c 0,5.0469 -4.098,9.1445 -9.145,9.1445 -5.047,0 -9.145,-4.0976 -9.145,-9.1445 0,-5.0469 4.098,-9.1445 9.145,-9.1445 5.047,0 9.145,4.0976 9.145,9.1445"
         style="fill:#000000;fill-opacity:1;fill-rule:nonzero;stroke:none"
         id="path16" /><path
         d="m 326.289,86.6758 -3.812,-0.8555 -3.817,-0.8555 -3.812,-0.8593 -3.817,-0.8555 -3.812,-0.8555 -3.817,-0.8554 -3.812,-0.8555 -3.817,-0.8594 -3.812,-0.8554 -3.816,-0.8555 -3.813,-0.8555 -3.816,-0.8594 -3.813,-0.8554 -3.816,-0.8555 -3.813,-0.8594 -3.812,-0.8554 -3.817,-0.8555 -3.812,-0.8555 -3.817,-0.8555 -3.812,-0.8593 -3.816,-0.8555 -3.813,-0.8555 -3.816,-0.8554 -3.813,-0.8594 -3.816,-0.8555 -3.813,-0.8554 -3.816,-0.8555 -3.813,-0.8594 -3.816,-0.8555 -3.813,-0.8554 -3.812,-0.8555 -3.817,-0.8594 -3.816,-0.8554 -3.812,-0.8555 -3.817,-0.8555 -3.812,-0.8554 -3.813,-0.8594 -3.816,-0.8555 -3.813,-0.8555 -3.816,-0.8554 -3.813,-0.8594 -3.816,-0.8555 -3.813,-0.8554 -3.816,-0.8594 -3.812,-0.8555 -3.817,-0.8555 -3.812,-0.8554 -3.817,-0.8555 -3.812,-0.8594 -3.817,-0.8554 -3.812,-0.8555 -3.813,-0.8555 -3.816,-0.8593 -3.813,-0.8555 -3.816,-0.8555 -3.812,-0.8554 -3.817,-0.8594 -3.812,-0.8555 -3.817,-0.8555 -3.8123,-0.8554 -3.8164,-0.8594 -3.8125,-0.8555 -3.8164,-0.8554 -3.8125,-0.8555 4.0078,-17.8438 3.8125,0.8555 3.8164,0.8555 3.8125,0.8594 3.8129,0.8554 3.816,0.8555 3.812,0.8555 3.817,0.8593 3.812,0.8555 3.817,0.8555 3.812,0.8554 3.817,0.8555 3.812,0.8594 3.817,0.8554 3.812,0.8555 3.817,0.8555 3.812,0.8594 3.816,0.8554 3.813,0.8555 3.812,0.8594 3.817,0.8554 3.812,0.8555 3.817,0.8555 3.812,0.8555 3.817,0.8593 3.812,0.8555 3.817,0.8555 3.812,0.8554 3.816,0.8594 3.813,0.8555 3.816,0.8554 3.813,0.8555 3.816,0.8594 3.813,0.8555 3.812,0.8554 3.817,0.8555 3.812,0.8594 3.817,0.8554 3.812,0.8555 3.817,0.8555 3.812,0.8554 3.816,0.8594 3.813,0.8555 3.816,0.8555 3.813,0.8554 3.816,0.8594 3.813,0.8555 3.816,0.8554 3.813,0.8594 3.812,0.8555 3.817,0.8555 3.816,0.8554 3.812,0.8555 3.817,0.8594 3.812,0.8554 3.813,0.8555 3.816,0.8555 3.813,0.8593 3.816,0.8555 3.813,0.8555 3.816,0.8554 3.813,0.8594 3.816,0.8555 3.812,0.8555 3.817,0.8554"
         style="fill:#000000;fill-opacity:1;fill-rule:nonzero;stroke:none"
         id="path18" /><path
         d="m 334.375,77.7617 c 0,3.3438 -2.715,6.0586 -6.059,6.0586 -3.343,0 -6.058,-2.7148 -6.058,-6.0586 0,-3.3437 2.715,-6.0586 6.058,-6.0586 3.344,0 6.059,2.7149 6.059,6.0586"
         style="fill:#000000;fill-opacity:1;fill-rule:nonzero;stroke:none"
         id="path20" /><path
         d="m 333.996,89.8828 c 0,3.3438 -2.719,6.0586 -6.062,6.0586 -3.344,0 -6.059,-2.7148 -6.059,-6.0586 0,-3.3437 2.715,-6.0586 6.059,-6.0586 3.343,0 6.062,2.7149 6.062,6.0586"
         style="fill:#000000;fill-opacity:1;fill-rule:nonzero;stroke:none"
         id="path22" /><path
         d="m 321.879,89.6914 0.191,-6.0586 0.192,-6.0625 12.109,0.3828 -0.187,6.0586 -0.192,6.0625"
         style="fill:#000000;fill-opacity:1;fill-rule:nonzero;stroke:none"
         id="path24" /><path
         d="m 94.0117,22.9453 c 0,5.4453 -4.4179,9.8633 -9.8633,9.8633 -5.4453,0 -9.8632,-4.418 -9.8632,-9.8633 0,-5.4453 4.4179,-9.8633 9.8632,-9.8633 5.4454,0 9.8633,4.418 9.8633,9.8633"
         style="fill:#000000;fill-opacity:1;fill-rule:nonzero;stroke:none"
         id="path26" /><path
         d="m 60.2422,99.1992 c 0,5.4458 -4.418,9.8628 -9.8633,9.8628 -5.4453,0 -9.8633,-4.417 -9.8633,-9.8628 0,-5.4453 4.418,-9.8633 9.8633,-9.8633 5.4453,0 9.8633,4.418 9.8633,9.8633"
         style="fill:#000000;fill-opacity:1;fill-rule:nonzero;stroke:none"
         id="path28" /><path
         d="m 41.3594,95.207 2.1094,-4.7656 2.1132,-4.7656 2.1094,-4.7656 2.1094,-4.7657 2.1094,-4.7656 2.1132,-4.7695 2.1094,-4.7656 2.1094,-4.7657 2.1133,-4.7656 2.1093,-4.7656 2.1094,-4.7657 2.1133,-4.7656 2.1094,-4.7656 2.1093,-4.7656 2.1133,-4.7656 2.1094,-4.7657 18.0352,7.9883 -2.1094,4.7656 -2.1094,4.7657 -2.1094,4.7656 -2.1132,4.7656 -2.1094,4.7656 -2.1094,4.7657 -2.1133,4.7656 -2.1094,4.7656 -2.1093,4.7656 -2.1133,4.7657 -2.1094,4.7656 -2.1094,4.7695 -2.1132,4.7617 -2.1094,4.7657 -2.1094,4.7695 -2.1133,4.7653"
         style="fill:#000000;fill-opacity:1;fill-rule:nonzero;stroke:none"
         id="path30" /><path
         d="m 57.8711,99.2109 c 0,4.1411 -3.3555,7.4961 -7.4961,7.4961 -4.1406,0 -7.5,-3.355 -7.5,-7.4961 0,-4.1406 3.3594,-7.5 7.5,-7.5 4.1406,0 7.4961,3.3594 7.4961,7.5"
         style="fill:#000000;fill-opacity:1;fill-rule:nonzero;stroke:none"
         id="path32" /><path
         d="m 56.6797,110.762 c 0,4.14 -3.3594,7.5 -7.5,7.5 -4.1406,0 -7.4961,-3.36 -7.4961,-7.5 0,-4.141 3.3555,-7.5 7.4961,-7.5 4.1406,0 7.5,3.359 7.5,7.5"
         style="fill:#000000;fill-opacity:1;fill-rule:nonzero;stroke:none"
         id="path34" /><path
         d="m 41.7227,109.992 0.5976,-5.777 0.5938,-5.7775 14.9179,1.543 -0.5937,5.7775 -0.5977,5.773"
         style="fill:#000000;fill-opacity:1;fill-rule:nonzero;stroke:none"
         id="path36" /><path
         d="m 331.938,89.8906 c 0,2.211 -1.797,4.0078 -4.008,4.0078 -2.211,0 -4.008,-1.7968 -4.008,-4.0078 0,-2.2109 1.797,-4.0117 4.008,-4.0117 2.211,0 4.008,1.8008 4.008,4.0117"
         style="fill:#000000;fill-opacity:1;fill-rule:nonzero;stroke:none"
         id="path38" /><path
         d="m 285.262,131.34 c 0,2.211 -1.797,4.008 -4.008,4.008 -2.211,0 -4.008,-1.797 -4.008,-4.008 0,-2.211 1.797,-4.008 4.008,-4.008 2.211,0 4.008,1.797 4.008,4.008"
         style="fill:#000000;fill-opacity:1;fill-rule:nonzero;stroke:none"
         id="path40" /><path
         d="m 278.594,128.344 2.918,-2.594 2.918,-2.59 2.914,-2.59 2.918,-2.59 2.918,-2.589 2.918,-2.594 2.918,-2.59 2.914,-2.59 2.918,-2.59 2.918,-2.589 2.918,-2.5942 2.918,-2.5899 2.914,-2.5898 2.918,-2.5899 2.918,-2.5937 2.918,-2.5899 5.324,5.9961 -2.918,2.5899 -2.918,2.5898 -2.918,2.5896 -2.918,2.59 -2.914,2.594 -2.918,2.59 -2.918,2.59 -2.918,2.589 -2.918,2.59 -2.914,2.594 -2.918,2.59 -2.918,2.59 -2.918,2.589 -2.918,2.594 -2.914,2.59 -2.918,2.59"
         style="fill:#000000;fill-opacity:1;fill-rule:nonzero;stroke:none"
         id="path42" /><path
         d="m 54.1289,110.777 c 0,2.715 -2.207,4.922 -4.9219,4.922 -2.7148,0 -4.9218,-2.207 -4.9218,-4.922 0,-2.715 2.207,-4.922 4.9218,-4.922 2.7149,0 4.9219,2.207 4.9219,4.922"
         style="fill:#000000;fill-opacity:1;fill-rule:nonzero;stroke:none"
         id="path44" /><path
         d="m 84.168,369.273 c 0,4.289 -3.4766,7.766 -7.7657,7.766 -4.289,0 -7.7695,-3.477 -7.7695,-7.766 0,-4.289 3.4805,-7.765 7.7695,-7.765 4.2891,0 7.7657,3.476 7.7657,7.765"
         style="fill:#000000;fill-opacity:1;fill-rule:nonzero;stroke:none"
         id="path46" /><path
         d="m 68.8672,367.387 1.1562,-4.449 1.2383,-4.458 1.2461,-4.351 1.1914,-4.262 1.082,-4.179 0.9141,-4.11 0.7031,-4.094 0.5118,-4.293 0.5078,-4.464 0.5039,-4.481 0.4961,-4.48 0.4882,-4.485 0.4844,-4.48 0.4805,-4.489 0.4727,-4.488 0.4648,-4.484 0.4609,-4.492 0.4532,-4.489 0.4492,-4.492 0.4414,-4.492 0.4375,-4.492 0.4297,-4.492 0.4257,-4.496 0.418,-4.493 0.4141,-4.496 0.4062,-4.496 0.3985,-4.492 0.3945,-4.496 0.3906,-4.496 0.3828,-4.492 0.375,-4.496 0.3711,-4.497 0.3672,-4.496 0.3594,-4.492 0.3516,-4.496 0.3476,-4.492 0.3438,-4.492 0.3359,-4.493 0.3281,-4.492 0.3242,-4.492 0.3164,-4.488 0.3126,-4.492 0.371,-4.539 0.543,-4.649 0.7149,-4.789 0.75,-4.754 0.6562,-4.64 0.4492,-4.438 0.1407,-4.129 -0.2579,-3.699 -0.7031,-3.172 -1.2422,-2.648 -1.9414,-2.399 -2.5351,-2.336 -3.0274,-2.187 -3.457,-2.047 -3.8203,-1.926 -4.0977,-1.824 -4.3086,-1.766 -4.4414,-1.742 -4.5117,-1.766 -4.5078,-1.839 -4.4375,-1.969 -4.1719,-2.078 4.3984,-8.805 3.9766,1.992 4.1094,1.852 4.3086,1.804 4.4297,1.801 4.4922,1.828 4.4765,1.903 4.4102,2.015 4.2734,2.188 4.0781,2.418 3.8164,2.719 3.4883,3.101 3.1014,3.649 2.422,4.3 1.633,4.723 0.976,4.937 0.493,5.071 0.148,5.121 -0.07,5.086 -0.188,4.941 -0.199,4.684 -0.133,4.426 -0.176,4.468 -0.246,4.52 -0.261,4.523 -0.274,4.52 -0.281,4.523 -0.293,4.524 -0.305,4.519 -0.316,4.524 -0.324,4.523 -0.336,4.524 -0.344,4.519 -0.352,4.524 -0.363,4.519 -0.375,4.52 -0.379,4.519 -0.386,4.52 -0.399,4.519 -0.4062,4.52 -0.4101,4.515 -0.4219,4.516 -0.4258,4.516 -0.4336,4.511 -0.4414,4.516 -0.4453,4.512 -0.4531,4.511 -0.4571,4.508 -0.4648,4.508 -0.4688,4.508 -0.4765,4.504 -0.4766,4.504 -0.4844,4.504 -0.4882,4.5 -0.4922,4.5 -0.4961,4.496 -0.5,4.511 -0.543,4.668 -0.7578,4.797 -0.957,4.719 -1.0938,4.594 -1.1641,4.484 -1.1757,4.387 -1.125,4.289 -1.0469,4.324"
         style="fill:#000000;fill-opacity:1;fill-rule:nonzero;stroke:none"
         id="path48" /><path
         d="m 123.574,358.004 c 0,5.176 -4.203,9.375 -9.379,9.375 -5.175,0 -9.375,-4.199 -9.375,-9.375 0,-5.176 4.2,-9.379 9.375,-9.379 5.176,0 9.379,4.203 9.379,9.379"
         style="fill:#000000;fill-opacity:1;fill-rule:nonzero;stroke:none"
         id="path50" /><path
         d="m 59.375,377.191 c 0,5.176 -4.1992,9.375 -9.375,9.375 -5.1758,0 -9.375,-4.199 -9.375,-9.375 0,-5.175 4.1992,-9.375 9.375,-9.375 5.1758,0 9.375,4.2 9.375,9.375"
         style="fill:#000000;fill-opacity:1;fill-rule:nonzero;stroke:none"
         id="path52" /><path
         d="m 47.3164,368.207 4.0117,-1.199 4.0117,-1.199 4.0118,-1.2 4.0117,-1.199 4.0156,-1.199 4.0117,-1.199 4.0117,-1.2 4.0118,-1.199 4.0117,-1.199 4.0117,-1.199 4.0117,-1.199 4.0156,-1.2 4.0118,-1.199 4.0114,-1.199 4.012,-1.199 4.012,-1.199 5.371,17.964 -4.012,1.2 -4.012,1.199 -4.011,1.203 -4.012,1.195 -4.0157,1.199 -4.0117,1.204 -4.0117,1.199 -4.0117,1.195 -4.0118,1.203 -4.0117,1.199 -4.0156,1.2 -4.0117,1.199 -4.0117,1.199 -4.0118,1.199 -4.0117,1.2 -4.0117,1.199"
         style="fill:#000000;fill-opacity:1;fill-rule:nonzero;stroke:none"
         id="path54" /><path
         d="m 59.6133,377.195 c 0,5.313 -4.3086,9.625 -9.6211,9.625 -5.3125,0 -9.625,-4.312 -9.625,-9.625 0,-5.312 4.3125,-9.621 9.625,-9.621 5.3125,0 9.6211,4.309 9.6211,9.621"
         style="fill:#000000;fill-opacity:1;fill-rule:nonzero;stroke:none"
         id="path56" /><path
         d="m 29.2461,397.047 c 0,5.312 -4.3125,9.621 -9.625,9.621 -5.3125,0 -9.6211,-4.309 -9.6211,-9.621 0,-5.313 4.3086,-9.621 9.6211,-9.621 5.3125,0 9.625,4.308 9.625,9.621"
         style="fill:#000000;fill-opacity:1;fill-rule:nonzero;stroke:none"
         id="path58" /><path
         d="m 14.3594,388.992 3.7929,-2.48 3.7969,-2.481 3.7969,-2.48 3.7969,-2.485 3.7968,-2.48 3.793,-2.481 3.7969,-2.484 3.7969,-2.48 10.5312,16.109 -3.7969,2.48 -3.7968,2.485 -3.7969,2.48 -3.7969,2.481 -3.793,2.48 -3.7968,2.481 -3.7969,2.484 -3.7969,2.481"
         style="fill:#000000;fill-opacity:1;fill-rule:nonzero;stroke:none"
         id="path60" /><path
         d="m 292.039,101.273 c 0,3.215 -2.613,5.829 -5.828,5.829 -3.215,0 -5.828,-2.614 -5.828,-5.829 0,-3.2144 2.613,-5.8277 5.828,-5.8277 3.215,0 5.828,2.6133 5.828,5.8277"
         style="fill:#000000;fill-opacity:1;fill-rule:nonzero;stroke:none"
         id="path62" /><path
         d="m 274.328,403.414 c 0,3.344 -2.715,6.059 -6.058,6.059 -3.344,0 -6.063,-2.715 -6.063,-6.059 0,-3.344 2.719,-6.059 6.063,-6.059 3.343,0 6.058,2.715 6.058,6.059"
         style="fill:#000000;fill-opacity:1;fill-rule:nonzero;stroke:none"
         id="path64" /><path
         d="m 262.215,403.152 0.207,-4.726 0.203,-4.727 0.203,-4.726 0.199,-4.727 0.196,-4.726 0.199,-4.731 0.191,-4.727 0.192,-4.73 0.191,-4.727 0.192,-4.73 0.191,-4.73 0.187,-4.731 0.188,-4.73 0.184,-4.731 0.187,-4.73 0.184,-4.731 0.187,-4.73 0.184,-4.731 0.183,-4.73 0.188,-4.735 0.183,-4.73 0.188,-4.734 0.187,-4.731 0.188,-4.73 0.187,-4.735 0.188,-4.73 0.191,-4.735 0.192,-4.73 0.191,-4.734 0.195,-4.735 0.2,-4.73 0.195,-4.735 0.199,-4.73 0.203,-4.735 0.203,-4.73 0.207,-4.734 0.211,-4.731 0.211,-4.734 0.215,-4.731 0.215,-4.73 0.223,-4.734 0.222,-4.731 0.227,-4.73 0.23,-4.735 0.235,-4.73 0.238,-4.731 0.242,-4.73 0.242,-4.731 0.25,-4.73 0.254,-4.731 0.262,-4.726 0.262,-4.731 0.269,-4.73 0.27,-4.727 0.285,-4.746 0.324,-4.847 0.52,-4.914 0.683,-4.86 0.809,-4.797 0.883,-4.738 0.925,-4.688 0.922,-4.636 0.879,-4.59 0.813,-4.617 11.48,2.023 -0.832,4.707 -0.906,4.719 -0.938,4.668 -0.921,4.617 -0.864,4.574 -0.765,4.535 -0.633,4.497 -0.461,4.48 -0.293,4.586 -0.27,4.699 -0.265,4.715 -0.262,4.719 -0.258,4.715 -0.25,4.718 -0.25,4.719 -0.242,4.723 -0.238,4.719 -0.231,4.718 -0.23,4.723 -0.227,4.723 -0.222,4.722 -0.215,4.723 -0.215,4.723 -0.215,4.726 -0.207,4.723 -0.203,4.726 -0.203,4.727 -0.199,4.726 -0.196,4.723 -0.191,4.731 -0.192,4.726 -0.191,4.727 -0.187,4.73 -0.188,4.727 -0.184,4.73 -0.179,4.731 -0.184,4.726 -0.18,4.731 -0.175,4.73 -0.18,4.731 -0.176,4.73 -0.176,4.731 -0.175,4.734 -0.176,4.73 -0.176,4.731 -0.176,4.734 -0.175,4.731 -0.176,4.73 -0.176,4.735 -0.176,4.734 -0.179,4.73 -0.176,4.735 -0.18,4.73 -0.184,4.735 -0.179,4.73 -0.184,4.734 -0.187,4.735 -0.188,4.73 -0.187,4.735 -0.192,4.734 -0.195,4.731 -0.195,4.734 -0.2,4.734 -0.203,4.731"
         style="fill:#000000;fill-opacity:1;fill-rule:nonzero;stroke:none"
         id="path66" /><path
         d="m 27.1172,397.051 c 0,4.14 -3.3594,7.5 -7.5,7.5 -4.1406,0 -7.4961,-3.36 -7.4961,-7.5 0,-4.141 3.3555,-7.5 7.4961,-7.5 4.1406,0 7.5,3.359 7.5,7.5"
         style="fill:#000000;fill-opacity:1;fill-rule:nonzero;stroke:none"
         id="path68" /><path
         d="m 25.7344,410.457 c 0,4.141 -3.3594,7.5 -7.5,7.5 -4.1406,0 -7.5,-3.359 -7.5,-7.5 0,-4.141 3.3594,-7.496 7.5,-7.496 4.1406,0 7.5,3.355 7.5,7.496"
         style="fill:#000000;fill-opacity:1;fill-rule:nonzero;stroke:none"
         id="path70" /><path
         d="m 10.7773,409.688 0.6915,-6.704 0.6914,-6.703 14.9179,1.539 -0.6914,6.703 -0.6914,6.704"
         style="fill:#000000;fill-opacity:1;fill-rule:nonzero;stroke:none"
         id="path72" /><path
         d="m 22.668,410.461 c 0,2.437 -1.9766,4.414 -4.4141,4.414 -2.4375,0 -4.4141,-1.977 -4.4141,-4.414 0,-2.438 1.9766,-4.414 4.4141,-4.414 2.4375,0 4.4141,1.976 4.4141,4.414"
         style="fill:#000000;fill-opacity:1;fill-rule:nonzero;stroke:none"
         id="path74" /><path
         d="m 209.695,417.398 c 0,2.438 -1.98,4.414 -4.418,4.414 -2.437,0 -4.414,-1.976 -4.414,-4.414 0,-2.437 1.977,-4.414 4.414,-4.414 2.438,0 4.418,1.977 4.418,4.414"
         style="fill:#000000;fill-opacity:1;fill-rule:nonzero;stroke:none"
         id="path76" /><path
         d="m 205.113,421.812 -5.843,-0.218 -5.844,-0.215 -5.844,-0.219 -5.844,-0.215 -5.843,-0.218 -5.848,-0.215 -5.844,-0.219 -5.844,-0.219 -5.843,-0.215 -5.844,-0.218 -5.848,-0.215 -5.844,-0.215 -5.843,-0.219 -5.844,-0.219 -5.848,-0.214 -5.843,-0.219 -5.844,-0.215 -5.8439,-0.219 -5.8438,-0.215 -5.8476,-0.218 -5.8438,-0.215 -5.8437,-0.219 -5.8438,-0.215 -5.8437,-0.219 -5.8477,-0.214 -5.8438,-0.219 -5.8437,-0.215 -5.8437,-0.219 -5.8438,-0.215 -5.8477,-0.218 -5.8437,-0.215 -5.8438,-0.219 0.3282,-8.82 5.8437,0.215 5.8438,0.214 5.8437,0.219 5.8477,0.219 5.8437,0.215 5.8438,0.219 5.8437,0.214 5.8438,0.215 5.8476,0.219 5.8438,0.219 5.8437,0.215 5.8438,0.218 5.8437,0.215 5.8475,0.219 5.844,0.215 5.844,0.219 5.843,0.214 5.844,0.219 5.848,0.215 5.844,0.219 5.843,0.215 5.844,0.218 5.848,0.215 5.844,0.219 5.843,0.215 5.844,0.219 5.844,0.214 5.843,0.219 5.848,0.215 5.844,0.219 5.844,0.215 5.843,0.218"
         style="fill:#000000;fill-opacity:1;fill-rule:nonzero;stroke:none"
         id="path78" /><path
         d="m 271.953,403.445 c 0,2.039 -1.652,3.696 -3.691,3.696 -2.039,0 -3.696,-1.657 -3.696,-3.696 0,-2.039 1.657,-3.695 3.696,-3.695 2.039,0 3.691,1.656 3.691,3.695"
         style="fill:#000000;fill-opacity:1;fill-rule:nonzero;stroke:none"
         id="path80" /><path
         d="m 209,417.398 c 0,2.04 -1.656,3.696 -3.695,3.696 -2.039,0 -3.696,-1.656 -3.696,-3.696 0,-2.039 1.657,-3.695 3.696,-3.695 2.039,0 3.695,1.656 3.695,3.695"
         style="fill:#000000;fill-opacity:1;fill-rule:nonzero;stroke:none"
         id="path82" /><path
         d="m 204.504,413.793 3.934,-0.875 3.937,-0.871 3.934,-0.871 3.933,-0.871 3.938,-0.875 3.933,-0.871 3.934,-0.871 3.937,-0.872 3.934,-0.875 3.934,-0.871 3.933,-0.871 3.938,-0.875 3.933,-0.871 3.934,-0.871 3.937,-0.871 3.934,-0.871 1.598,7.215 -3.934,0.871 -3.934,0.871 -3.933,0.871 -3.938,0.875 -3.933,0.871 -3.938,0.871 -3.933,0.871 -3.934,0.871 -3.934,0.875 -3.937,0.871 -3.934,0.872 -3.933,0.875 -3.938,0.871 -3.933,0.871 -3.934,0.871 -3.934,0.875"
         style="fill:#000000;fill-opacity:1;fill-rule:nonzero;stroke:none"
         id="path84" /><path
         d="m 730.043,83.0508 c 0,2.6562 -2.16,4.8125 -4.816,4.8125 -2.657,0 -4.813,-2.1563 -4.813,-4.8125 0,-2.6563 2.156,-4.8164 4.813,-4.8164 2.656,0 4.816,2.1601 4.816,4.8164"
         style="fill:#000000;fill-opacity:1;fill-rule:nonzero;stroke:none"
         id="path86" /><path
         d="m 837.375,153.219 c 0,5.101 -4.141,9.242 -9.242,9.242 -5.102,0 -9.242,-4.141 -9.242,-9.242 0,-5.102 4.14,-9.242 9.242,-9.242 5.101,0 9.242,4.14 9.242,9.242"
         style="fill:#000000;fill-opacity:1;fill-rule:nonzero;stroke:none"
         id="path88" /><path
         d="m 827.234,162.418 -5.734,-0.57 -5.73,-0.536 -5.758,-0.515 -5.785,-0.524 -5.809,-0.543 -5.832,-0.582 -5.852,-0.632 -5.867,-0.711 -5.949,-0.809 -6.051,-1.027 -5.988,-1.285 -5.832,-1.45 -5.668,-1.527 -5.531,-1.508 -5.614,-1.457 -5.824,-1.59 -5.957,-1.914 -5.937,-2.433 -5.676,-3.028 -5.504,-3.586 -5.223,-4.207 -4.617,-4.851 -3.734,-5.457 -3.473,-6.504 -2.383,-7.281 0.551,-7.25 3.738,-5.5746 4.879,-3.9492 5.481,-3.332 5.695,-3.0274 5.488,-2.875 5.055,-2.9844 4.871,8.3047 -5.293,3.0821 -5.75,2.9218 -5.504,2.7852 -4.762,2.7656 -3.492,2.7192 -1.785,1.929 0.574,2.309 2.567,3.93 3.785,4.359 3.601,3.402 3.872,2.832 4.378,2.559 4.696,2.265 4.676,1.922 4.82,1.59 5.148,1.406 5.465,1.329 5.684,1.355 5.672,1.445 5.539,1.422 5.429,1.324 5.328,1.145 5.348,0.898 5.512,0.731 5.621,0.656 5.66,0.598 5.695,0.543 5.731,0.512 5.758,0.5 5.789,0.503 5.812,0.524 5.793,0.555"
         style="fill:#000000;fill-opacity:1;fill-rule:nonzero;stroke:none"
         id="path90" /><path
         d="m 565.793,129.605 c 0,4.602 -3.734,8.336 -8.336,8.336 -4.602,0 -8.336,-3.734 -8.336,-8.336 0,-4.601 3.734,-8.335 8.336,-8.335 4.602,0 8.336,3.734 8.336,8.335"
         style="fill:#000000;fill-opacity:1;fill-rule:nonzero;stroke:none"
         id="path92" /><path
         d="m 747.137,243.633 c 0,2.32 -1.883,4.203 -4.203,4.203 -2.321,0 -4.204,-1.883 -4.204,-4.203 0,-2.321 1.883,-4.203 4.204,-4.203 2.32,0 4.203,1.882 4.203,4.203"
         style="fill:#000000;fill-opacity:1;fill-rule:nonzero;stroke:none"
         id="path94" /><path
         d="m 741.969,239.543 4.312,-0.605 4.231,-0.782 4.14,-1.027 4.16,-1.172 4.215,-1.16 4.231,-1.145 4.242,-1.129 4.246,-1.117 4.254,-1.109 4.258,-1.102 4.258,-1.105 4.254,-1.102 4.246,-1.109 4.242,-1.113 4.226,-1.129 4.215,-1.137 4.199,-1.156 4.18,-1.172 4.156,-1.199 4.129,-1.219 4.106,-1.25 4.07,-1.281 4.039,-1.317 4.004,-1.351 3.965,-1.391 3.922,-1.43 3.875,-1.48 3.82,-1.531 3.27,-1.399 2.226,-1.715 1.82,-2.527 1.633,-3.312 1.313,-3.754 0.933,-3.731 0.567,-3.594 0.199,-3.746 -0.133,-3.875 -0.433,-3.898 -0.707,-3.824 -0.934,-3.696 -1.152,-3.703 -1.34,-3.769 -1.508,-3.742 -1.672,-3.7 -1.812,-3.617 -1.942,-3.519 -2.062,-3.391 -2.172,-3.246 -2.313,-3.168 -2.468,-3.121 -2.61,-3.051 -2.734,-2.969 -2.844,-2.867 -2.941,-2.754 -3.02,-2.621 -3.082,-2.484 -3.176,-2.368 -3.293,-2.296 -3.394,-2.219 -3.488,-2.149 -3.575,-2.082 -3.64,-2.011 -3.703,-1.953 -3.754,-1.8911 -3.789,-1.8398 -3.793,-1.7773 -3.758,-1.6915 -3.781,-1.5859 -3.848,-1.5117 -3.902,-1.4492 -3.961,-1.3907 -4.008,-1.3437 -4.047,-1.3086 -4.082,-1.2813 -4.109,-1.2617 -4.122,-1.25 -4.109,-1.2343 -4.094,-1.1993 -4.082,-1.1523 -4.074,-1.0977 -4.059,-1.0273 -4.043,-0.9492 -4.031,-0.8516 -4.019,-0.75 -4.094,-0.6562 -4.199,-0.6289 -4.223,-0.5977 -4.211,-0.5508 -4.191,-0.4844 -4.164,-0.4101 -4.137,-0.3164 -4.09,-0.211 -4.043,-0.0937 -3.98,0.0391 -3.649,0.1914 -3.238,0.5547 -3.231,0.9687 -3.394,1.3047 -3.523,1.5312 -3.637,1.7032 -3.778,1.8515 -3.878,1.9063 -3.891,1.9062 -3.895,1.9063 -3.894,1.9062 -3.899,1.9102 -3.898,1.914 -3.895,1.918 -3.886,1.9219 -3.887,1.9336 -3.875,1.9414 -3.867,1.9492 -3.856,1.9606 -3.839,1.973 -3.829,1.988 -3.808,2.004 -3.793,2.02 -3.774,2.035 -3.75,2.055 -3.726,2.074 -3.699,2.094 -3.676,2.121 -3.641,2.14 -3.613,2.164 -2.668,1.344 -0.914,0.899 -0.633,2.878 -1.391,4.211 -15.793,-5.339 1.461,-4.235 2.262,-5.527 4.332,-5.285 4.567,-3.161 3.675,-2.296 3.696,-2.282 3.715,-2.265 3.734,-2.2503 3.75,-2.2383 3.766,-2.2226 3.781,-2.207 3.797,-2.1915 3.808,-2.1796 3.821,-2.1602 3.832,-2.1523 3.839,-2.1329 3.848,-2.1211 3.856,-2.1093 3.863,-2.0899 3.863,-2.0781 3.871,-2.0664 3.871,-2.0469 3.871,-2.0351 3.871,-2.0235 3.868,-2.0078 3.867,-1.9922 3.863,-1.9804 3.953,-2.0157 4.239,-2.0195 4.574,-1.8516 4.875,-1.5351 5.152,-1.1133 5.203,-0.5742 4.867,-0.1445 4.602,0.0078 4.586,0.1406 4.57,0.2578 4.543,0.3672 4.52,0.4531 4.484,0.5274 4.445,0.5859 4.403,0.6328 4.375,0.668 4.429,0.7305 4.477,0.8593 4.438,0.9688 4.394,1.0547 4.352,1.1289 4.308,1.1875 4.27,1.2343 4.222,1.2618 4.18,1.2812 4.164,1.2852 4.184,1.3007 4.203,1.3321 4.219,1.3789 4.222,1.4336 4.227,1.5 4.219,1.582 4.203,1.6719 4.176,1.7812 4.101,1.8672 4.027,1.9258 4.012,1.9805 4.008,2.0586 3.992,2.1406 3.969,2.2383 3.926,2.3359 3.871,2.4414 3.808,2.5586 3.731,2.6836 3.64,2.8246 3.559,2.992 3.457,3.16 3.34,3.301 3.215,3.437 3.07,3.559 2.918,3.668 2.746,3.773 2.57,3.867 2.391,3.997 2.215,4.144 2.027,4.258 1.836,4.344 1.645,4.41 1.441,4.453 1.235,4.473 1.035,4.535 0.738,4.722 0.371,4.895 -0.004,4.937 -0.394,4.911 -0.797,4.816 -1.207,4.559 -1.578,4.531 -2.063,4.691 -2.719,4.598 -3.629,4.125 -4.445,2.949 -4.453,1.75 -4.023,1.488 -4.051,1.434 -4.086,1.371 -4.117,1.32 -4.149,1.27 -4.168,1.223 -4.195,1.183 -4.215,1.145 -4.234,1.113 -4.25,1.078 -4.258,1.059 -4.274,1.035 -4.277,1.019 -4.285,1.004 -4.285,0.996 -4.285,0.993 -4.286,0.992 -4.277,0.996 -4.266,1 -4.257,1.015 -4.246,1.028 -4.227,1.047 -4.211,1.07 -4.183,1.094 -4.204,1.136 -4.25,1.145 -4.211,1.211 -4.125,1.387"
         style="fill:#000000;fill-opacity:1;fill-rule:nonzero;stroke:none"
         id="path96" /><path
         d="m 609.367,264.211 c 0,2.777 -2.254,5.031 -5.031,5.031 -2.777,0 -5.031,-2.254 -5.031,-5.031 0,-2.777 2.254,-5.031 5.031,-5.031 2.777,0 5.031,2.254 5.031,5.031"
         style="fill:#000000;fill-opacity:1;fill-rule:nonzero;stroke:none"
         id="path98" /><path
         d="m 630.984,279.277 c 0,2.778 -2.254,5.032 -5.031,5.032 -2.777,0 -5.031,-2.254 -5.031,-5.032 0,-2.777 2.254,-5.031 5.031,-5.031 2.777,0 5.031,2.254 5.031,5.031"
         style="fill:#000000;fill-opacity:1;fill-rule:nonzero;stroke:none"
         id="path100" /><path
         d="m 623.074,283.406 -5.402,-3.765 -5.406,-3.77 -5.403,-3.766 -5.406,-3.765 5.754,-8.254 5.406,3.766 5.403,3.765 5.406,3.766 5.402,3.769"
         style="fill:#000000;fill-opacity:1;fill-rule:nonzero;stroke:none"
         id="path102" /><path
         d="m 634.695,279.281 c 0,4.832 -3.918,8.75 -8.75,8.75 -4.832,0 -8.75,-3.918 -8.75,-8.75 0,-4.832 3.918,-8.75 8.75,-8.75 4.832,0 8.75,3.918 8.75,8.75"
         style="fill:#000000;fill-opacity:1;fill-rule:nonzero;stroke:none"
         id="path104" /><path
         d="m 574.086,333.844 c 0,4.48 -3.633,8.113 -8.113,8.113 -4.481,0 -8.114,-3.633 -8.114,-8.113 0,-4.481 3.633,-8.114 8.114,-8.114 4.48,0 8.113,3.633 8.113,8.114"
         style="fill:#000000;fill-opacity:1;fill-rule:nonzero;stroke:none"
         id="path106" /><path
         d="m 558.012,332.289 0.797,-5.387 0.98,-6.066 2.285,-6.586 3.453,-5.629 3.571,-4.785 3.84,-4.543 4.042,-4.309 4.192,-4.07 4.551,-4.016 5.254,-3.656 5.523,-2.961 5.402,-2.426 5.469,-2.195 5.621,-1.805 5.356,-1.492 5.179,-1.492 4.84,16.82 -5.254,1.512 -5.117,1.418 -4.691,1.488 -4.539,1.844 -4.559,2.047 -4.094,2.168 -3.547,2.48 -3.468,3.114 -3.641,3.519 -3.477,3.68 -3.238,3.793 -2.93,3.84 -2.292,3.273 -1.27,3.399 -1.012,4.75 -1.3,5.379"
         style="fill:#000000;fill-opacity:1;fill-rule:nonzero;stroke:none"
         id="path108" /><path
         d="m 725.23,215.016 c 0,4.043 -3.281,7.324 -7.324,7.324 -4.043,0 -7.324,-3.281 -7.324,-7.324 0,-4.043 3.281,-7.325 7.324,-7.325 4.043,0 7.324,3.282 7.324,7.325"
         style="fill:#000000;fill-opacity:1;fill-rule:nonzero;stroke:none"
         id="path110" /><path
         d="m 865.094,398.34 c 0,2.703 -2.196,4.898 -4.899,4.898 -2.703,0 -4.902,-2.195 -4.902,-4.898 0,-2.703 2.199,-4.902 4.902,-4.902 2.703,0 4.899,2.199 4.899,4.902"
         style="fill:#000000;fill-opacity:1;fill-rule:nonzero;stroke:none"
         id="path112" /><path
         d="m 856.07,395.695 2.321,-3.8 2.492,-3.747 2.383,-3.605 2.129,-3.496 1.73,-3.399 1.258,-3.394 0.867,-3.633 0.648,-3.894 0.399,-3.985 0.137,-4.012 -0.122,-3.972 -0.367,-3.867 -0.613,-3.805 -0.812,-3.883 -0.993,-3.922 -1.16,-3.91 -1.316,-3.863 -1.469,-3.793 -1.605,-3.699 -1.735,-3.571 -1.847,-3.414 -2,-3.297 -2.192,-3.246 -2.367,-3.195 -2.527,-3.133 -2.668,-3.058 -2.786,-2.965 -2.878,-2.867 -2.957,-2.75 -3.04,-2.668 -3.136,-2.614 -3.227,-2.539 -3.305,-2.457 -3.371,-2.363 -3.429,-2.27 -3.477,-2.156 -3.515,-2.043 -3.54,-1.914 -3.511,-1.75 -3.567,-1.57 -3.695,-1.442 -3.82,-1.343 -3.934,-1.262 -4.027,-1.203 -4.11,-1.164 -4.164,-1.153 -4.121,-1.132 -3.566,-0.95 -3.512,-0.441 -4.168,-0.379 -4.195,-0.488 -4.715,-0.438 -5.5,-1.246 -4.809,-2.027 -4.238,-2.043 -4.351,-2.34 -4.336,-2.734 -4.168,-3.266 -3.75,-3.934 -2.993,-4.445 -2.273,-4.512 -1.844,-4.347 -1.633,-4.016 -1.75,-3.84 13.352,-6.031 1.859,4.148 1.672,4.266 1.535,3.859 1.559,3.258 1.668,2.512 2.074,1.914 2.727,1.676 3.324,1.492 3.746,1.344 3.984,1.265 3.25,1.036 2.95,0.257 4.054,0.047 4.465,0.364 4.516,0.351 5.074,0.723 4.785,1.246 4.254,1.199 4.231,1.195 4.289,1.246 4.328,1.329 4.347,1.441 4.348,1.578 4.336,1.75 4.289,1.953 4.145,2.133 4.023,2.25 3.949,2.375 3.887,2.5 3.812,2.617 3.731,2.723 3.641,2.824 3.55,2.914 3.446,3 3.343,3.086 3.274,3.219 3.199,3.363 3.106,3.508 2.984,3.641 2.844,3.769 2.668,3.899 2.476,4.015 2.238,4.121 2.008,4.223 1.797,4.332 1.598,4.43 1.398,4.5 1.199,4.543 1.004,4.57 0.801,4.57 0.61,4.574 0.367,4.653 0.031,4.789 -0.305,4.801 -0.605,4.765 -0.899,4.692 -1.175,4.574 -1.489,4.519 -2,4.414 -2.414,4.125 -2.613,3.836 -2.645,3.629 -2.527,3.493 -2.383,3.542"
         style="fill:#000000;fill-opacity:1;fill-rule:nonzero;stroke:none"
         id="path114" /><path
         d="m 869.328,398.363 c 0,5.047 -4.098,9.141 -9.144,9.141 -5.047,0 -9.145,-4.094 -9.145,-9.141 0,-5.047 4.098,-9.144 9.145,-9.144 5.046,0 9.144,4.097 9.144,9.144"
         style="fill:#000000;fill-opacity:1;fill-rule:nonzero;stroke:none"
         id="path116" /><path
         d="m 910,401.223 c 0,5.047 -4.098,9.144 -9.145,9.144 -5.046,0 -9.144,-4.097 -9.144,-9.144 0,-5.047 4.098,-9.145 9.144,-9.145 5.047,0 9.145,4.098 9.145,9.145"
         style="fill:#000000;fill-opacity:1;fill-rule:nonzero;stroke:none"
         id="path118" /><path
         d="m 900.215,410.344 -5.082,-0.36 -5.086,-0.355 -5.082,-0.359 -5.086,-0.356 -5.082,-0.359 -5.086,-0.356 -5.082,-0.359 -5.086,-0.356 1.281,-18.242 5.086,0.356 5.082,0.359 5.086,0.355 5.082,0.36 5.086,0.355 5.082,0.36 5.086,0.355 5.086,0.36"
         style="fill:#000000;fill-opacity:1;fill-rule:nonzero;stroke:none"
         id="path120" /><path
         d="m 778.703,265.203 c 0,2.649 -2.148,4.797 -4.797,4.797 -2.648,0 -4.801,-2.148 -4.801,-4.797 0,-2.648 2.153,-4.801 4.801,-4.801 2.649,0 4.797,2.153 4.797,4.801"
         style="fill:#000000;fill-opacity:1;fill-rule:nonzero;stroke:none"
         id="path122" /><path
         d="m 794.297,417.074 c 0,4.492 -3.649,8.137 -8.141,8.137 -4.492,0 -8.136,-3.645 -8.136,-8.137 0,-4.492 3.644,-8.14 8.136,-8.14 4.492,0 8.141,3.648 8.141,8.14"
         style="fill:#000000;fill-opacity:1;fill-rule:nonzero;stroke:none"
         id="path124" /><path
         d="m 780.5,422.926 -3.812,-4.012 -4.012,-3.828 -4.246,-3.926 -4.344,-4.051 -4.313,-4.234 -4.144,-4.484 -3.836,-4.801 -3.367,-5.199 -2.692,-5.524 -2.058,-5.687 -1.571,-5.809 -1.164,-5.902 -0.847,-5.957 -0.598,-5.973 -0.414,-5.941 -0.297,-5.875 -0.242,-5.758 -0.238,-5.598 -0.297,-5.668 -0.317,-5.918 -0.218,-6.082 0,-6.144 0.347,-6.114 0.828,-6 1.485,-5.808 2.418,-5.625 3.793,-4.996 4.75,-4.11 5.191,-3.453 5.274,-3.101 5.011,-2.961 4.641,-3.157 5.387,7.946 -4.907,3.312 -5.304,3.11 -5.098,2.933 -4.519,2.934 -3.579,3.004 -2.437,3.219 -1.473,3.882 -0.988,4.578 -0.481,5.055 -0.054,5.41 0.269,5.649 0.485,5.785 0.578,5.82 0.547,5.75 0.425,5.703 0.372,5.746 0.386,5.731 0.477,5.664 0.629,5.543 0.844,5.363 1.109,5.137 1.43,4.848 1.781,4.484 2.199,4.062 2.797,3.743 3.387,3.605 3.879,3.527 4.257,3.497 4.52,3.535 4.648,3.652 4.657,3.852 4.382,3.914"
         style="fill:#000000;fill-opacity:1;fill-rule:nonzero;stroke:none"
         id="path126" /><path
         d="m 906.922,401.227 c 0,3.343 -2.719,6.058 -6.063,6.058 -3.343,0 -6.058,-2.715 -6.058,-6.058 0,-3.344 2.715,-6.063 6.058,-6.063 3.344,0 6.063,2.719 6.063,6.063"
         style="fill:#000000;fill-opacity:1;fill-rule:nonzero;stroke:none"
         id="path128" /><path
         d="m 909.961,429.242 c 0,3.344 -2.715,6.063 -6.059,6.063 -3.343,0 -6.062,-2.719 -6.062,-6.063 0,-3.344 2.719,-6.058 6.062,-6.058 3.344,0 6.059,2.714 6.059,6.058"
         style="fill:#000000;fill-opacity:1;fill-rule:nonzero;stroke:none"
         id="path130" /><path
         d="m 897.879,429.898 -0.383,-3.503 -0.379,-3.5 -0.379,-3.504 -0.383,-3.504 -0.378,-3.5 -0.379,-3.504 -0.383,-3.5 -0.379,-3.504 12.051,-1.309 0.379,3.504 0.379,3.5 0.378,3.504 0.383,3.504 0.379,3.5 0.379,3.504 0.383,3.504 0.379,3.5"
         style="fill:#000000;fill-opacity:1;fill-rule:nonzero;stroke:none"
         id="path132" /><path
         d="m 767.863,435.172 c 0,2.437 -1.976,4.414 -4.414,4.414 -2.437,0 -4.414,-1.977 -4.414,-4.414 0,-2.438 1.977,-4.414 4.414,-4.414 2.438,0 4.414,1.976 4.414,4.414"
         style="fill:#000000;fill-opacity:1;fill-rule:nonzero;stroke:none"
         id="path134" /><path
         d="m 792.23,436.129 c 0,2.437 -1.98,4.414 -4.418,4.414 -2.437,0 -4.414,-1.977 -4.414,-4.414 0,-2.438 1.977,-4.414 4.414,-4.414 2.438,0 4.418,1.976 4.418,4.414"
         style="fill:#000000;fill-opacity:1;fill-rule:nonzero;stroke:none"
         id="path136" /><path
         d="m 787.641,440.539 -6.09,-0.238 -6.09,-0.239 -6.094,-0.238 -6.09,-0.238 0.344,-8.824 6.094,0.238 6.09,0.238 6.09,0.239 6.093,0.242"
         style="fill:#000000;fill-opacity:1;fill-rule:nonzero;stroke:none"
         id="path138" /><path
         d="m 907.586,429.246 c 0,2.039 -1.656,3.695 -3.695,3.695 -2.039,0 -3.696,-1.656 -3.696,-3.695 0,-2.039 1.657,-3.695 3.696,-3.695 2.039,0 3.695,1.656 3.695,3.695"
         style="fill:#000000;fill-opacity:1;fill-rule:nonzero;stroke:none"
         id="path140" /><path
         d="m 791.523,436.129 c 0,2.039 -1.656,3.691 -3.695,3.691 -2.039,0 -3.695,-1.652 -3.695,-3.691 0,-2.039 1.656,-3.695 3.695,-3.695 2.039,0 3.695,1.656 3.695,3.695"
         style="fill:#000000;fill-opacity:1;fill-rule:nonzero;stroke:none"
         id="path142" /><path
         d="m 787.609,432.438 3.625,-0.215 3.629,-0.215 3.625,-0.215 3.629,-0.215 3.625,-0.215 3.629,-0.215 3.625,-0.214 3.629,-0.215 3.629,-0.215 3.625,-0.215 3.625,-0.215 3.629,-0.215 3.625,-0.214 3.629,-0.215 3.625,-0.215 3.629,-0.215 3.625,-0.215 3.629,-0.215 3.625,-0.215 3.628,-0.214 3.625,-0.215 3.629,-0.215 3.625,-0.219 3.629,-0.215 3.625,-0.215 3.629,-0.214 3.625,-0.215 3.629,-0.215 3.625,-0.215 3.629,-0.215 3.625,-0.215 3.629,-0.214 0.437,7.379 -3.629,0.214 -3.625,0.215 -3.628,0.215 -3.625,0.215 -3.629,0.215 -3.625,0.215 -3.629,0.214 -3.625,0.215 -3.629,0.215 -3.625,0.215 -3.629,0.215 -3.625,0.215 -3.629,0.214 -3.625,0.215 -3.629,0.215 -3.625,0.215 -3.629,0.215 -3.625,0.215 -3.629,0.215 -3.625,0.214 -3.629,0.215 -3.625,0.219 -3.628,0.215 -3.626,0.215 -3.628,0.214 -3.625,0.215 -3.629,0.215 -3.625,0.215 -3.629,0.215 -3.625,0.215 -3.629,0.215 -3.625,0.214"
         style="fill:#000000;fill-opacity:1;fill-rule:nonzero;stroke:none"
         id="path144" /><path
         d="m 835.699,425.727 c 0,2.679 -2.176,4.855 -4.855,4.855 -2.68,0 -4.856,-2.176 -4.856,-4.855 0,-2.68 2.176,-4.852 4.856,-4.852 2.679,0 4.855,2.172 4.855,4.852"
         style="fill:#000000;fill-opacity:1;fill-rule:nonzero;stroke:none"
         id="path146" /><path
         d="m 610.469,418.27 c 0,2.699 -2.192,4.89 -4.891,4.89 -2.699,0 -4.887,-2.191 -4.887,-4.89 0,-2.7 2.188,-4.891 4.887,-4.891 2.699,0 4.891,2.191 4.891,4.891"
         style="fill:#000000;fill-opacity:1;fill-rule:nonzero;stroke:none"
         id="path148" /><path
         d="m 607.848,413.938 3.23,1.73 3.234,1.816 3.176,1.84 3.125,1.824 3.094,1.77 3.07,1.687 3.059,1.571 3.055,1.418 3.086,1.246 3.203,1.086 3.32,1.054 3.367,1 3.399,0.934 3.418,0.859 3.441,0.77 3.457,0.668 3.465,0.559 3.469,0.437 3.464,0.305 3.454,0.16 3.484,0.023 3.543,-0.031 3.562,-0.066 3.567,-0.09 3.57,-0.121 3.57,-0.149 3.571,-0.172 3.578,-0.191 3.574,-0.215 3.582,-0.234 3.582,-0.254 3.582,-0.27 3.586,-0.281 3.586,-0.297 3.59,-0.308 3.59,-0.317 3.594,-0.324 3.593,-0.332 3.598,-0.336 3.598,-0.34 3.597,-0.34 3.606,-0.339 3.601,-0.34 3.606,-0.332 3.605,-0.332 3.61,-0.325 3.613,-0.312 3.609,-0.305 3.617,-0.293 3.614,-0.281 3.621,-0.273 3.652,-0.262 3.68,-0.184 3.629,-0.109 3.551,-0.113 3.464,-0.176 3.368,-0.309 3.261,-0.484 3.219,-0.715 3.25,-0.914 3.313,-1.067 3.39,-1.16 3.469,-1.183 3.484,-1.114 2.961,9.247 -3.398,1.086 -3.391,1.152 -3.469,1.18 -3.566,1.14 -3.68,1.031 -3.789,0.844 -3.824,0.61 -3.789,0.417 -3.746,0.286 -3.68,0.199 -3.613,0.156 -3.547,0.152 -3.551,0.196 -3.582,0.215 -3.59,0.234 -3.593,0.238 -3.598,0.246 -3.598,0.25 -3.601,0.25 -3.602,0.258 -3.605,0.254 -3.61,0.258 -3.605,0.254 -3.613,0.254 -3.614,0.25 -3.613,0.246 -3.617,0.242 -3.617,0.234 -3.618,0.227 -3.621,0.219 -3.617,0.207 -3.621,0.199 -3.621,0.184 -3.621,0.175 -3.621,0.16 -3.621,0.141 -3.621,0.129 -3.621,0.113 -3.622,0.09 -3.621,0.074 -3.621,0.051 -3.621,0.031 -3.637,0.008 -3.683,-0.047 -3.727,-0.168 -3.726,-0.273 -3.723,-0.375 -3.715,-0.473 -3.699,-0.566 -3.68,-0.656 -3.656,-0.743 -3.621,-0.824 -3.586,-0.902 -3.551,-0.985 -3.582,-1.101 -3.574,-1.324 -3.488,-1.5 -3.391,-1.629 -3.312,-1.723 -3.246,-1.765 -3.192,-1.778 -3.148,-1.75 -3.118,-1.691 -3.168,-1.617"
         style="fill:#000000;fill-opacity:1;fill-rule:nonzero;stroke:none"
         id="path150" /><path
         d="m 386.965,80.3398 c 0,5.0469 -4.098,9.1446 -9.145,9.1446 -5.047,0 -9.14,-4.0977 -9.14,-9.1446 0,-5.0468 4.093,-9.1445 9.14,-9.1445 5.047,0 9.145,4.0977 9.145,9.1445"
         style="fill:#000000;fill-opacity:1;fill-rule:nonzero;stroke:none"
         id="path152" /><path
         d="m 394.629,82.0977 c 0,5.0468 -4.094,9.1445 -9.141,9.1445 -5.047,0 -9.144,-4.0977 -9.144,-9.1445 0,-5.0469 4.097,-9.1446 9.144,-9.1446 5.047,0 9.141,4.0977 9.141,9.1446"
         style="fill:#000000;fill-opacity:1;fill-rule:nonzero;stroke:none"
         id="path154" /><path
         d="m 383.441,91.0117 -3.832,-0.8789 -3.832,-0.8789 4.086,-17.8242 3.836,0.8789 3.832,0.875"
         style="fill:#000000;fill-opacity:1;fill-rule:nonzero;stroke:none"
         id="path156" /><path
         d="m 387.723,80.3477 c 0,5.4687 -4.442,9.9062 -9.911,9.9062 -5.468,0 -9.906,-4.4375 -9.906,-9.9062 0,-5.4688 4.438,-9.9102 9.906,-9.9102 5.469,0 9.911,4.4414 9.911,9.9102"
         style="fill:#000000;fill-opacity:1;fill-rule:nonzero;stroke:none"
         id="path158" /><path
         d="m 316.023,139.039 c 0,5.469 -4.437,9.906 -9.906,9.906 -5.469,0 -9.906,-4.437 -9.906,-9.906 0,-5.469 4.437,-9.91 9.906,-9.91 5.469,0 9.906,4.441 9.906,9.91"
         style="fill:#000000;fill-opacity:1;fill-rule:nonzero;stroke:none"
         id="path160" /><path
         d="m 299.84,131.371 4.48,-3.668 4.485,-3.668 4.48,-3.668 4.481,-3.668 4.48,-3.668 4.481,-3.668 4.48,-3.668 4.481,-3.672 4.484,-3.6675 4.48,-3.668 4.481,-3.668 4.48,-3.6679 4.481,-3.668 4.48,-3.668 4.485,-3.6679 4.48,-3.668 12.551,15.332 -4.481,3.668 -4.48,3.668 -4.484,3.6679 -4.481,3.6684 -4.48,3.671 -4.481,3.668 -4.48,3.668 -4.481,3.668 -4.48,3.668 -4.485,3.668 -4.48,3.668 -4.481,3.668 -4.48,3.668 -4.481,3.668 -4.48,3.668 -4.48,3.668"
         style="fill:#000000;fill-opacity:1;fill-rule:nonzero;stroke:none"
         id="path162" /><path
         d="m 426.574,140.238 c 0,2.696 -2.191,4.887 -4.886,4.887 -2.696,0 -4.883,-2.191 -4.883,-4.887 0,-2.695 2.187,-4.883 4.883,-4.883 2.695,0 4.886,2.188 4.886,4.883"
         style="fill:#000000;fill-opacity:1;fill-rule:nonzero;stroke:none"
         id="path164" /><path
         d="m 380.91,187.633 c 0,2.801 -2.273,5.078 -5.074,5.078 -2.801,0 -5.078,-2.277 -5.078,-5.078 0,-2.801 2.277,-5.078 5.078,-5.078 2.801,0 5.074,2.277 5.074,5.078"
         style="fill:#000000;fill-opacity:1;fill-rule:nonzero;stroke:none"
         id="path166" /><path
         d="m 371.727,184.648 2.441,-3.312 2.371,-3.352 2.383,-3.422 2.43,-3.457 2.507,-3.46 2.629,-3.426 2.782,-3.352 2.972,-3.238 3.156,-3.059 3.274,-2.875 3.348,-2.718 3.386,-2.598 3.391,-2.524 3.355,-2.476 3.289,-2.465 3.243,-2.527 6.007,7.707 -3.324,2.586 -3.394,2.539 -3.375,2.48 -3.321,2.461 -3.222,2.469 -3.102,2.512 -2.941,2.586 -2.758,2.691 -2.586,2.852 -2.469,3.035 -2.387,3.195 -2.339,3.32 -2.325,3.41 -2.347,3.473 -2.406,3.492 -2.454,3.422"
         style="fill:#000000;fill-opacity:1;fill-rule:nonzero;stroke:none"
         id="path168" /><path
         d="m 387.27,178.074 c 0,2.356 -1.918,4.27 -4.274,4.27 -2.355,0 -4.269,-1.914 -4.269,-4.27 0,-2.355 1.914,-4.273 4.269,-4.273 2.356,0 4.274,1.918 4.274,4.273"
         style="fill:#000000;fill-opacity:1;fill-rule:nonzero;stroke:none"
         id="path170" /><path
         d="m 466.723,223.766 c 0,4.757 -3.86,8.621 -8.618,8.621 -4.757,0 -8.621,-3.864 -8.621,-8.621 0,-4.758 3.864,-8.621 8.621,-8.621 4.758,0 8.618,3.863 8.618,8.621"
         style="fill:#000000;fill-opacity:1;fill-rule:nonzero;stroke:none"
         id="path172" /><path
         d="m 452.832,216.945 3.602,-1.058 1.964,0.761 -0.558,0.707 -0.57,-2.011 -0.895,-2.946 -1.102,-3.023 -1.293,-3.012 -1.359,-2.871 -3.41,-5.269 -3.981,-4.055 -4.863,-3.395 -5.629,-2.949 -6.101,-2.453 -6.305,-1.961 -6.148,-1.457 -6.149,-0.695 -6.41,-0.016 -6.691,0.379 -6.903,0.473 -6.883,0.25 -0.3,-8.539 6.746,-0.235 6.824,-0.453 6.996,-0.363 7.109,0.043 7.086,0.781 6.934,1.551 6.941,2.066 6.852,2.637 6.559,3.254 6.085,3.973 5.43,4.98 4.672,6.102 2.152,3.355 1.84,3.387 1.645,3.383 1.441,3.328 1.332,3.984 -0.558,6.09 -3.258,5.414 -2.297,3.504"
         style="fill:#000000;fill-opacity:1;fill-rule:nonzero;stroke:none"
         id="path174" /><path
         d="m 313.793,139.055 c 0,4.242 -3.441,7.683 -7.684,7.683 -4.242,0 -7.687,-3.441 -7.687,-7.683 0,-4.243 3.445,-7.688 7.687,-7.688 4.243,0 7.684,3.445 7.684,7.688"
         style="fill:#000000;fill-opacity:1;fill-rule:nonzero;stroke:none"
         id="path176" /><path
         d="m 301.746,230.797 c 0,4.242 -3.441,7.683 -7.684,7.683 -4.242,0 -7.683,-3.441 -7.683,-7.683 0,-4.242 3.441,-7.684 7.683,-7.684 4.243,0 7.684,3.442 7.684,7.684"
         style="fill:#000000;fill-opacity:1;fill-rule:nonzero;stroke:none"
         id="path178" /><path
         d="m 286.441,229.797 0.754,-5.735 0.754,-5.734 0.754,-5.734 0.75,-5.735 0.754,-5.734 0.754,-5.734 0.754,-5.735 0.75,-5.73 0.754,-5.735 0.754,-5.734 0.754,-5.734 0.75,-5.735 0.753,-5.734 0.754,-5.734 0.75,-5.735 0.754,-5.73 15.239,2 -0.75,5.73 -0.754,5.735 -0.754,5.734 -0.754,5.734 -0.75,5.735 -0.754,5.734 -0.754,5.734 -0.754,5.735 -0.754,5.734 -0.75,5.735 -0.754,5.734 -0.754,5.73 -0.75,5.735 -0.753,5.734 -0.754,5.734 -0.754,5.735"
         style="fill:#000000;fill-opacity:1;fill-rule:nonzero;stroke:none"
         id="path180" /><path
         d="m 298.477,230.805 c 0,2.437 -1.977,4.414 -4.415,4.414 -2.437,0 -4.414,-1.977 -4.414,-4.414 0,-2.438 1.977,-4.414 4.414,-4.414 2.438,0 4.415,1.976 4.415,4.414"
         style="fill:#000000;fill-opacity:1;fill-rule:nonzero;stroke:none"
         id="path182" /><path
         d="m 307.117,232.004 c 0,2.437 -1.976,4.414 -4.414,4.414 -2.437,0 -4.414,-1.977 -4.414,-4.414 0,-2.438 1.977,-4.414 4.414,-4.414 2.438,0 4.414,1.976 4.414,4.414"
         style="fill:#000000;fill-opacity:1;fill-rule:nonzero;stroke:none"
         id="path184" /><path
         d="m 302.098,236.375 -4.321,-0.598 -4.32,-0.597 1.211,-8.746 4.32,0.597 4.321,0.598"
         style="fill:#000000;fill-opacity:1;fill-rule:nonzero;stroke:none"
         id="path186" /><path
         d="m 379.352,187.645 c 0,1.945 -1.582,3.527 -3.528,3.527 -1.945,0 -3.531,-1.582 -3.531,-3.527 0,-1.946 1.586,-3.532 3.531,-3.532 1.946,0 3.528,1.586 3.528,3.532"
         style="fill:#000000;fill-opacity:1;fill-rule:nonzero;stroke:none"
         id="path188" /><path
         d="m 306.238,232 c 0,1.945 -1.582,3.527 -3.527,3.527 -1.945,0 -3.531,-1.582 -3.531,-3.527 0,-1.945 1.586,-3.531 3.531,-3.531 1.945,0 3.527,1.586 3.527,3.531"
         style="fill:#000000;fill-opacity:1;fill-rule:nonzero;stroke:none"
         id="path190" /><path
         d="m 300.879,228.98 4.57,-2.769 4.571,-2.773 4.57,-2.774 4.566,-2.769 4.571,-2.774 4.57,-2.773 4.57,-2.774 4.571,-2.769 4.57,-2.774 4.566,-2.773 4.571,-2.77 4.57,-2.773 4.57,-2.774 4.57,-2.769 4.567,-2.774 4.57,-2.773 3.66,6.035 -4.566,2.774 -4.57,2.769 -4.571,2.774 -4.57,2.773 -4.57,2.77 -4.571,2.773 -4.566,2.773 -4.57,2.774 -4.571,2.769 -4.57,2.774 -4.57,2.773 -4.567,2.77 -4.57,2.773 -4.57,2.774 -4.571,2.769 -4.57,2.774"
         style="fill:#000000;fill-opacity:1;fill-rule:nonzero;stroke:none"
         id="path192" /><path
         d="m 608.762,326.219 c 0,5.047 -4.098,9.14 -9.145,9.14 -5.047,0 -9.144,-4.093 -9.144,-9.14 0,-5.047 4.097,-9.145 9.144,-9.145 5.047,0 9.145,4.098 9.145,9.145"
         style="fill:#000000;fill-opacity:1;fill-rule:nonzero;stroke:none"
         id="path194" /><path
         d="m 616.344,327.012 c 0,5.047 -4.098,9.14 -9.145,9.14 -5.047,0 -9.144,-4.093 -9.144,-9.14 0,-5.047 4.097,-9.145 9.144,-9.145 5.047,0 9.145,4.098 9.145,9.145"
         style="fill:#000000;fill-opacity:1;fill-rule:nonzero;stroke:none"
         id="path196" /><path
         d="m 606.246,336.105 -3.789,-0.398 -3.793,-0.395 1.906,-18.191 3.789,0.399 3.793,0.394"
         style="fill:#000000;fill-opacity:1;fill-rule:nonzero;stroke:none"
         id="path198" /><path
         d="m 609.633,326.219 c 0,5.535 -4.492,10.027 -10.028,10.027 -5.535,0 -10.023,-4.492 -10.023,-10.027 0,-5.535 4.488,-10.024 10.023,-10.024 5.536,0 10.028,4.489 10.028,10.024"
         style="fill:#000000;fill-opacity:1;fill-rule:nonzero;stroke:none"
         id="path200" /><path
         d="m 512.941,348.156 c 0,5.535 -4.488,10.024 -10.023,10.024 -5.535,0 -10.027,-4.489 -10.027,-10.024 0,-5.535 4.492,-10.027 10.027,-10.027 5.535,0 10.023,4.492 10.023,10.027"
         style="fill:#000000;fill-opacity:1;fill-rule:nonzero;stroke:none"
         id="path202" /><path
         d="m 500.699,338.379 6.043,-1.371 6.043,-1.371 6.043,-1.371 6.043,-1.371 6.043,-1.372 6.043,-1.371 6.043,-1.371 6.043,-1.371 6.043,-1.371 6.043,-1.371 6.043,-1.371 6.043,-1.371 6.043,-1.371 6.043,-1.371 6.047,-1.372 6.043,-1.371 4.433,19.555 -6.043,1.371 -6.043,1.371 -6.043,1.371 -6.043,1.371 -6.043,1.372 -6.043,1.371 -6.043,1.371 -6.043,1.371 -6.042,1.371 -6.043,1.371 -6.043,1.371 -6.043,1.371 -6.043,1.371 -6.047,1.371 -6.043,1.371 -6.043,1.372"
         style="fill:#000000;fill-opacity:1;fill-rule:nonzero;stroke:none"
         id="path204" /><path
         d="m 511.527,348.164 c 0,4.762 -3.863,8.625 -8.625,8.625 -4.761,0 -8.629,-3.863 -8.629,-8.625 0,-4.762 3.868,-8.629 8.629,-8.629 4.762,0 8.625,3.867 8.625,8.629"
         style="fill:#000000;fill-opacity:1;fill-rule:nonzero;stroke:none"
         id="path206" /><path
         d="m 475.805,390.988 c 0,4.762 -3.864,8.625 -8.625,8.625 -4.762,0 -8.629,-3.863 -8.629,-8.625 0,-4.761 3.867,-8.629 8.629,-8.629 4.761,0 8.625,3.868 8.625,8.629"
         style="fill:#000000;fill-opacity:1;fill-rule:nonzero;stroke:none"
         id="path208" /><path
         d="m 460.555,385.461 4.465,-5.356 4.464,-5.351 4.465,-5.352 4.469,-5.355 4.465,-5.352 4.465,-5.351 4.464,-5.356 4.465,-5.351 13.25,11.051 -4.465,5.355 -4.464,5.352 -4.469,5.351 -4.465,5.356 -4.465,5.351 -4.465,5.356 -4.464,5.351 -4.469,5.352"
         style="fill:#000000;fill-opacity:1;fill-rule:nonzero;stroke:none"
         id="path210" /><path
         d="m 392.988,82.1523 c 0,4.125 -3.343,7.4688 -7.468,7.4688 -4.125,0 -7.473,-3.3438 -7.473,-7.4688 0,-4.125 3.348,-7.4726 7.473,-7.4726 4.125,0 7.468,3.3476 7.468,7.4726"
         style="fill:#000000;fill-opacity:1;fill-rule:nonzero;stroke:none"
         id="path212" /><path
         d="m 502.867,397.324 c 0,4.949 -4.015,8.965 -8.965,8.965 -4.949,0 -8.961,-4.016 -8.961,-8.965 0,-4.949 4.012,-8.965 8.961,-8.965 4.95,0 8.965,4.016 8.965,8.965"
         style="fill:#000000;fill-opacity:1;fill-rule:nonzero;stroke:none"
         id="path214" /><path
         d="m 492.141,406.113 -4.579,-1.058 -4.656,-0.825 -4.965,-0.839 -5.168,-1 -5.281,-1.34 -5.289,-1.887 -5.027,-2.602 -4.473,-3.222 -4.344,-3.766 -4.199,-4.262 -3.82,-4.644 -3.184,-4.957 -2.215,-5.289 -0.753,-5.442 0.773,-5.101 1.66,-4.789 2.328,-4.711 2.856,-4.625 3.281,-4.5 3.598,-4.309 3.82,-4.035 3.945,-3.683 3.992,-3.262 4.164,-2.86 4.45,-2.484 4.621,-2.129 4.738,-1.847 4.809,-1.633 4.839,-1.489 4.825,-1.398 4.761,-1.367 4.653,-1.399 4.543,-1.488 4.574,-1.598 4.684,-1.546 4.683,-1.477 4.672,-1.441 4.645,-1.426 4.605,-1.438 4.559,-1.48 4.496,-1.547 4.429,-1.641 4.391,-1.769 4.41,-1.867 4.426,-1.918 4.391,-1.981 4.336,-2.047 4.25,-2.14 4.148,-2.246 4.019,-2.364 3.872,-2.5 3.691,-2.656 3.582,-2.871 3.469,-3.102 3.262,-3.296 2.976,-3.45 2.606,-3.558 2.164,-3.625 1.718,-3.754 1.422,-4.055 1.145,-4.301 0.855,-4.457 0.574,-4.543 0.301,-4.539 0.031,-4.457 -0.23,-4.297 -0.535,-4.3 -0.832,-4.356 -1.098,-4.375 -1.34,-4.351 -1.547,-4.286 -1.726,-4.175 -1.867,-4.024 -2.059,-3.937 -2.258,-3.883 -2.445,-3.801 -2.617,-3.687 -2.77,-3.539 -2.898,-3.364 -3.043,-3.199 -3.227,-3.133 -3.383,-3.121 -3.48,-3.051 -3.574,-2.957 -3.653,-2.859 -3.726,-2.742 -3.789,-2.617 -3.84,-2.477 -3.887,-2.324 -3.957,-2.188 -4.066,-2.101 -4.16,-2.028 -4.227,-1.929 -4.281,-1.825 -4.324,-1.707 -4.356,-1.589 -4.379,-1.457 -4.386,-1.321 -4.387,-1.176 -4.34,-1.015 -4.227,-0.805 -4.234,-0.535 -4.371,-0.324 -4.512,-0.153 -4.64,-0.019 -4.754,0.062 -4.864,0.102 -4.957,0.094 -5.043,0.023 -5.019,-0.09 -4.828,-0.152 -4.75,-0.07 -4.832,-0.016 -4.91,0 -4.973,-0.016 -5.02,-0.07 -5.062,-0.168 -5.086,-0.297 -5.102,-0.468 -5.179,-0.735 -5.782,-1.433 -5.839,-2.93 -4.918,-3.793 -4.161,-4.039 -3.773,-4.3713 -3.102,-4.8867 -2.39,-4.5781 -2.285,-4.2539 13.179,-7.0313 2.325,4.3906 2.082,4.1993 1.984,3.3125 2.555,2.6718 3.164,2.5938 3.191,1.9258 2.895,0.9726 3.453,0.3008 4.269,0.3789 4.465,0.25 4.582,0.1133 4.688,0.0039 4.773,-0.0742 4.86,-0.1172 4.929,-0.1211 4.988,-0.0937 5.036,-0.0274 4.898,0.0742 4.715,0.0235 4.73,-0.0703 4.84,-0.1172 4.942,-0.1172 5.023,-0.0625 5.106,0.039 5.171,0.1993 5.239,0.4257 5.273,0.7031 5.164,1.012 5.012,1.203 4.949,1.367 4.918,1.527 4.871,1.676 4.821,1.821 4.761,1.953 4.696,2.074 4.617,2.183 4.535,2.293 4.457,2.391 4.406,2.531 4.367,2.719 4.286,2.867 4.191,3.012 4.094,3.141 3.992,3.254 3.883,3.359 3.761,3.449 3.645,3.535 3.555,3.657 3.461,3.898 3.293,4.133 3.085,4.304 2.868,4.446 2.644,4.558 2.41,4.653 2.157,4.707 1.914,4.773 1.714,4.926 1.493,5.055 1.242,5.152 0.965,5.219 0.652,5.25 0.309,5.246 -0.055,5.176 -0.379,5.222 -0.695,5.262 -1.02,5.246 -1.351,5.168 -1.688,5.031 -2.047,4.84 -2.445,4.606 -2.938,4.398 -3.328,4.133 -3.632,3.871 -3.852,3.605 -3.992,3.34 -4.063,3.067 -4.129,2.836 -4.254,2.668 -4.351,2.503 -4.426,2.364 -4.484,2.234 -4.52,2.129 -4.531,2.035 -4.527,1.961 -4.532,1.914 -4.593,1.844 -4.664,1.719 -4.676,1.609 -4.684,1.523 -4.679,1.469 -4.657,1.438 -4.633,1.433 -4.593,1.453 -4.547,1.508 -4.586,1.606 -4.75,1.554 -4.824,1.442 -4.809,1.375 -4.742,1.367 -4.637,1.414 -4.476,1.512 -4.278,1.656 -4.019,1.852 -3.735,2.082 -3.457,2.394 -3.441,2.828 -3.527,3.27 -3.454,3.59 -3.234,3.808 -2.891,3.922 -2.406,3.906 -1.801,3.754 -1.086,3.414 -0.359,2.657 0.688,2.324 1.836,2.742 2.875,3.051 3.609,3.043 4,2.82 4.008,2.418 3.484,1.797 3.391,1.234 3.765,0.914 4.239,0.707 4.632,0.586 4.946,0.571 5.183,0.699 5.016,0.863"
         style="fill:#000000;fill-opacity:1;fill-rule:nonzero;stroke:none"
         id="path216" /><path
         d="m 613.117,327.02 c 0,3.265 -2.652,5.918 -5.918,5.918 -3.265,0 -5.918,-2.653 -5.918,-5.918 0,-3.266 2.653,-5.915 5.918,-5.915 3.266,0 5.918,2.649 5.918,5.915"
         style="fill:#000000;fill-opacity:1;fill-rule:nonzero;stroke:none"
         id="path218" /><path
         d="m 611.332,426.211 c 0,3.266 -2.648,5.918 -5.914,5.918 -3.266,0 -5.918,-2.652 -5.918,-5.918 0,-3.266 2.652,-5.914 5.918,-5.914 3.266,0 5.914,2.648 5.914,5.914"
         style="fill:#000000;fill-opacity:1;fill-rule:nonzero;stroke:none"
         id="path220" /><path
         d="m 599.504,426.105 0.109,-6.199 0.11,-6.199 0.113,-6.199 0.109,-6.199 0.114,-6.2 0.113,-6.199 0.109,-6.199 0.114,-6.199 0.109,-6.203 0.113,-6.2 0.11,-6.199 0.113,-6.199 0.109,-6.199 0.113,-6.2 0.11,-6.199 0.113,-6.199 11.828,0.215 -0.109,6.195 -0.113,6.203 -0.11,6.2 -0.113,6.199 -0.109,6.199 -0.114,6.199 -0.109,6.199 -0.113,6.2 -0.11,6.199 -0.113,6.199 -0.109,6.199 -0.114,6.2 -0.109,6.199 -0.113,6.199 -0.11,6.199 -0.113,6.199"
         style="fill:#000000;fill-opacity:1;fill-rule:nonzero;stroke:none"
         id="path222" /><path
         d="m 574.992,405.664 c 0,2.668 -2.168,4.836 -4.836,4.836 -2.668,0 -4.836,-2.168 -4.836,-4.836 0,-2.668 2.168,-4.832 4.836,-4.832 2.668,0 4.836,2.164 4.836,4.832"
         style="fill:#000000;fill-opacity:1;fill-rule:nonzero;stroke:none"
         id="path224" /><path
         d="m 537.027,204.73 c 0,5.176 -4.199,9.379 -9.375,9.379 -5.175,0 -9.375,-4.203 -9.375,-9.379 0,-5.175 4.2,-9.375 9.375,-9.375 5.176,0 9.375,4.2 9.375,9.375"
         style="fill:#000000;fill-opacity:1;fill-rule:nonzero;stroke:none"
         id="path226" /><path
         d="m 530.141,213.773 -4.715,1.297 -4.715,1.297 -4.715,1.297 -4.719,1.301 -4.715,1.297 -4.718,1.3 -4.719,1.297 -4.719,1.293 -4.722,1.297 -4.758,1.301 -4.824,1.27 -4.844,1.21 -4.805,1.161 -4.754,1.144 -4.695,1.153 -4.625,1.191 -4.551,1.25 -4.457,1.336 -4.363,1.445 -4.274,1.598 -4.226,1.773 -4.227,1.93 -4.234,2.051 -4.258,2.144 -4.293,2.207 -4.344,2.239 -4.41,2.226 -4.492,2.192 -4.547,2.117 -4.562,2.043 -4.567,1.984 -4.574,1.938 -4.574,1.898 -4.571,1.875 -4.554,1.855 -4.539,1.848 -4.52,1.848 -4.484,1.859 -4.457,1.883 -4.414,1.906 -4.367,1.949 -4.321,1.993 -4.258,2.05 -4.199,2.114 -4.129,2.183 -3.968,2.168 -3.657,2.223 -3.445,2.527 -3.297,2.84 -3.09,3.09 -2.84,3.262 -2.535,3.367 -2.219,3.461 -2.003,3.73 -1.809,4.004 -1.586,4.207 -1.336,4.336 -1.062,4.387 -0.782,4.355 -0.492,4.196 -0.113,4.199 0.281,4.347 0.645,4.442 0.976,4.437 1.274,4.344 1.523,4.16 1.805,4.078 2.101,4.051 2.375,3.953 2.618,3.789 2.832,3.571 3.046,3.301 3.321,3.089 3.551,3.071 3.683,2.992 3.797,2.887 3.895,2.769 3.984,2.633 4.051,2.476 4.113,2.305 4.156,2.121 4.207,1.93 4.317,1.812 4.425,1.711 4.504,1.582 4.571,1.426 4.621,1.254 4.652,1.055 4.664,0.828 4.66,0.586 4.637,0.316 4.656,0.051 4.723,-0.109 4.75,-0.227 4.762,-0.332 4.773,-0.434 4.785,-0.515 4.793,-0.594 4.805,-0.656 4.812,-0.711 4.825,-0.754 4.832,-0.785 4.843,-0.805 4.852,-0.808 4.859,-0.809 4.871,-0.793 4.879,-0.77 4.891,-0.73 4.895,-0.684 4.894,-0.625 4.887,-0.582 4.883,-0.547 4.875,-0.527 4.867,-0.512 4.859,-0.515 4.848,-0.524 4.836,-0.546 4.816,-0.579 4.805,-0.617 4.781,-0.672 4.762,-0.734 4.676,-0.793 4.546,-0.973 4.524,-1.211 4.566,-1.39 4.629,-1.489 4.707,-1.511 4.727,-1.43 2.801,9.254 -4.649,1.406 -4.629,1.485 -4.703,1.507 -4.801,1.454 -4.91,1.316 -4.98,1.07 -4.942,0.852 -4.886,0.773 -4.887,0.719 -4.891,0.672 -4.89,0.625 -4.887,0.594 -4.887,0.566 -4.875,0.543 -4.871,0.531 -4.863,0.524 -4.852,0.523 -4.836,0.531 -4.816,0.559 -4.816,0.598 -4.836,0.632 -4.848,0.657 -4.859,0.668 -4.872,0.675 -4.882,0.672 -4.891,0.664 -4.898,0.641 -4.903,0.613 -4.91,0.575 -4.918,0.527 -4.914,0.473 -4.922,0.406 -4.922,0.332 -4.922,0.254 -4.925,0.16 -4.934,0.055 -4.98,-0.083 -5.036,-0.324 -5.043,-0.55 -5.035,-0.762 -5.011,-0.961 -4.973,-1.145 -4.918,-1.316 -4.848,-1.477 -4.754,-1.625 -4.656,-1.765 -4.598,-1.949 -4.562,-2.18 -4.492,-2.387 -4.414,-2.562 -4.324,-2.723 -4.223,-2.867 -4.113,-2.992 -3.993,-3.094 -3.875,-3.184 -3.808,-3.347 -3.696,-3.692 -3.472,-3.984 -3.223,-4.215 -2.945,-4.395 -2.664,-4.523 -2.356,-4.613 -2.074,-4.762 -1.812,-5.004 -1.5,-5.195 -1.141,-5.328 -0.719,-5.414 -0.238,-5.411 0.246,-5.293 0.609,-5.285 0.95,-5.312 1.277,-5.285 1.609,-5.203 1.942,-5.075 2.285,-4.883 2.656,-4.664 3.094,-4.511 3.48,-4.297 3.817,-4.051 4.109,-3.773 4.363,-3.457 4.461,-3.036 4.411,-2.652 4.363,-2.469 4.398,-2.394 4.434,-2.324 4.457,-2.262 4.476,-2.207 4.493,-2.16 4.5,-2.118 4.507,-2.082 4.504,-2.054 4.5,-2.035 4.489,-2.016 4.468,-2.008 4.446,-2.004 4.418,-2.008 4.386,-2.015 4.34,-2.028 4.301,-2.058 4.313,-2.106 4.371,-2.132 4.429,-2.133 4.5,-2.121 4.574,-2.086 4.649,-2.028 4.73,-1.953 4.821,-1.855 4.89,-1.719 4.907,-1.574 4.898,-1.438 4.883,-1.332 4.851,-1.246 4.821,-1.195 4.777,-1.164 4.723,-1.16 4.656,-1.18 4.637,-1.23 4.675,-1.282 4.715,-1.289 4.711,-1.297 4.715,-1.293 4.715,-1.3 4.715,-1.297 4.715,-1.301 4.714,-1.297 4.719,-1.301 4.719,-1.297"
         style="fill:#000000;fill-opacity:1;fill-rule:nonzero;stroke:none"
         id="path228" /><path
         d="m 488.352,421.105 c 0,2.649 -2.153,4.801 -4.801,4.801 -2.649,0 -4.797,-2.152 -4.797,-4.801 0,-2.648 2.148,-4.8 4.797,-4.8 2.648,0 4.801,2.152 4.801,4.8"
         style="fill:#000000;fill-opacity:1;fill-rule:nonzero;stroke:none"
         id="path230" /><path
         d="m 505.102,434.727 c 0,3.105 -2.52,5.621 -5.625,5.621 -3.106,0 -5.622,-2.516 -5.622,-5.621 0,-3.106 2.516,-5.625 5.622,-5.625 3.105,0 5.625,2.519 5.625,5.625"
         style="fill:#000000;fill-opacity:1;fill-rule:nonzero;stroke:none"
         id="path232" /><path
         d="m 495.215,438.395 -3.184,-4.36 -3.133,-4.09 -2.761,-3.011 -4.231,-1.321 3.293,-9.015 5.856,2.363 4.906,4.234 3.926,4.051 3.851,3.813"
         style="fill:#000000;fill-opacity:1;fill-rule:nonzero;stroke:none"
         id="path234" /><path
         d="m 503.895,434.727 c 0,2.437 -1.977,4.418 -4.415,4.418 -2.437,0 -4.414,-1.981 -4.414,-4.418 0,-2.438 1.977,-4.415 4.414,-4.415 2.438,0 4.415,1.977 4.415,4.415"
         style="fill:#000000;fill-opacity:1;fill-rule:nonzero;stroke:none"
         id="path236" /><path
         d="m 510.402,434.945 c 0,2.438 -1.976,4.414 -4.414,4.414 -2.437,0 -4.414,-1.976 -4.414,-4.414 0,-2.437 1.977,-4.414 4.414,-4.414 2.438,0 4.414,1.977 4.414,4.414"
         style="fill:#000000;fill-opacity:1;fill-rule:nonzero;stroke:none"
         id="path238" /><path
         d="m 505.844,439.355 -3.258,-0.109 -3.254,-0.105 0.293,-8.825 3.258,0.11 3.254,0.105"
         style="fill:#000000;fill-opacity:1;fill-rule:nonzero;stroke:none"
         id="path240" /><path
         d="m 609.066,426.223 c 0,2.019 -1.64,3.66 -3.66,3.66 -2.019,0 -3.66,-1.641 -3.66,-3.66 0,-2.02 1.641,-3.661 3.66,-3.661 2.02,0 3.66,1.641 3.66,3.661"
         style="fill:#000000;fill-opacity:1;fill-rule:nonzero;stroke:none"
         id="path242" /><path
         d="m 509.66,434.945 c 0,2.02 -1.64,3.66 -3.66,3.66 -2.02,0 -3.66,-1.64 -3.66,-3.66 0,-2.019 1.64,-3.66 3.66,-3.66 2.02,0 3.66,1.641 3.66,3.66"
         style="fill:#000000;fill-opacity:1;fill-rule:nonzero;stroke:none"
         id="path244" /><path
         d="m 505.68,431.297 6.211,-0.543 6.214,-0.547 6.211,-0.547 6.215,-0.543 6.211,-0.547 6.215,-0.543 6.215,-0.547 6.211,-0.542 6.215,-0.547 6.211,-0.543 6.214,-0.547 6.211,-0.543 6.215,-0.547 6.211,-0.543 6.215,-0.547 6.211,-0.547 0.641,7.293 -6.211,0.547 -6.215,0.547 -6.211,0.543 -6.215,0.547 -6.215,0.543 -6.211,0.547 -6.215,0.543 -6.211,0.546 -6.214,0.543 -6.211,0.547 -6.215,0.543 -6.211,0.547 -6.215,0.543 -6.211,0.547 -6.215,0.547 -6.211,0.543"
         style="fill:#000000;fill-opacity:1;fill-rule:nonzero;stroke:none"
         id="path246" /><path
         d="m 204.348,493.273 c 0,5.348 -4.34,9.688 -9.688,9.688 -5.348,0 -9.687,-4.34 -9.687,-9.688 0,-5.347 4.339,-9.687 9.687,-9.687 5.348,0 9.688,4.34 9.688,9.687"
         style="fill:#000000;fill-opacity:1;fill-rule:nonzero;stroke:none"
         id="path248" /><path
         d="m 124.598,658.938 c 0,3.183 -2.586,5.769 -5.77,5.769 -3.183,0 -5.769,-2.586 -5.769,-5.769 0,-3.184 2.586,-5.77 5.769,-5.77 3.184,0 5.77,2.586 5.77,5.77"
         style="fill:#000000;fill-opacity:1;fill-rule:nonzero;stroke:none"
         id="path250" /><path
         d="m 115.637,663.746 -3.746,-2.41 -3.825,-2.277 -3.988,-2.235 -4.1014,-2.238 -4.1602,-2.274 -4.1797,-2.351 -4.1445,-2.481 -4.0586,-2.66 -3.9258,-2.894 -3.7344,-3.196 -3.4687,-3.542 -3.0274,-3.766 -2.75,-3.883 -2.625,-4.066 -2.5,-4.27 -2.3554,-4.441 -2.1758,-4.594 -1.9766,-4.711 -1.7383,-4.812 -1.4726,-4.887 -1.1758,-4.938 -0.8359,-4.972 -0.4531,-4.981 -0.0235,-4.933 0.3945,-4.789 0.7188,-4.762 1.0117,-4.793 1.2852,-4.801 1.539,-4.793 1.7735,-4.758 1.9961,-4.699 2.1992,-4.621 2.3906,-4.52 2.5703,-4.39 2.7383,-4.242 2.8906,-4.067 3.0391,-3.867 3.1914,-3.652 3.3945,-3.453 3.7227,-3.262 3.9726,-3 4.1719,-2.754 4.332,-2.52 4.4687,-2.304 4.574,-2.11 4.649,-1.922 4.695,-1.757 4.719,-1.598 4.707,-1.453 4.672,-1.32 4.601,-1.192 4.602,-1.097 4.836,-0.961 5.031,-0.649 4.992,-0.336 4.942,-0.082 4.879,0.117 4.808,0.254 4.738,0.344 4.657,0.387 4.566,0.379 4.473,0.336 4.363,0.242 4.422,0.121 -0.524,19.371 -4.687,-0.129 -4.801,-0.258 -4.726,-0.328 -4.649,-0.363 -4.555,-0.356 -4.457,-0.3 -4.347,-0.215 -4.227,-0.094 -4.09,0.062 -3.945,0.243 -3.805,0.453 -3.867,0.73 -4.129,0.918 -4.281,1.016 -4.305,1.101 -4.293,1.2 -4.254,1.3 -4.179,1.414 -4.074,1.528 -3.934,1.652 -3.766,1.774 -3.562,1.906 -3.3283,2.031 -3.0703,2.156 -2.7969,2.293 -2.6133,2.528 -2.6015,2.847 -2.5469,3.125 -2.4726,3.356 -2.3633,3.554 -2.2422,3.719 -2.0977,3.848 -1.9414,3.945 -1.7617,4.004 -1.5703,4.027 -1.3633,4.02 -1.1484,3.973 -0.9141,3.886 -0.6758,3.766 -0.4258,3.547 -0.1289,3.555 0.1641,3.742 0.457,3.918 0.7344,4.047 0.9961,4.128 1.2383,4.161 1.4609,4.156 1.6602,4.098 1.832,4 1.9766,3.859 2.0976,3.676 2.1602,3.414 2.1914,3.051 2.4687,2.757 2.8282,2.637 3.1679,2.535 3.4571,2.453 3.6992,2.395 3.8788,2.351 4.012,2.352 4.086,2.375 4.109,2.441 4.078,2.551 3.86,2.637"
         style="fill:#000000;fill-opacity:1;fill-rule:nonzero;stroke:none"
         id="path252" /><path
         d="m 144.906,516.801 c 0,4.929 -4,8.929 -8.929,8.929 -4.93,0 -8.934,-4 -8.934,-8.929 0,-4.93 4.004,-8.93 8.934,-8.93 4.929,0 8.929,4 8.929,8.93"
         style="fill:#000000;fill-opacity:1;fill-rule:nonzero;stroke:none"
         id="path254" /><path
         d="m 105.883,620.039 c 0,3.641 -2.953,6.594 -6.5939,6.594 -3.6407,0 -6.5899,-2.953 -6.5899,-6.594 0,-3.641 2.9492,-6.594 6.5899,-6.594 3.6409,0 6.5939,2.953 6.5939,6.594"
         style="fill:#000000;fill-opacity:1;fill-rule:nonzero;stroke:none"
         id="path256" /><path
         d="m 105.652,618.316 1.024,4.426 1.234,4.246 1.414,4.176 1.582,4.074 1.742,3.934 1.887,3.762 2.024,3.546 2.136,3.305 2.239,3.024 2.312,2.711 2.555,2.535 2.906,2.468 3.227,2.383 3.504,2.266 3.738,2.133 3.929,1.972 4.075,1.797 4.179,1.598 4.243,1.39 4.253,1.161 4.231,0.918 4.152,0.664 4.032,0.394 3.863,0.121 3.679,-0.168 3.715,-0.445 3.84,-0.707 3.93,-0.957 3.984,-1.191 4.024,-1.414 4.035,-1.626 4.015,-1.812 3.981,-1.996 3.918,-2.156 3.828,-2.305 3.723,-2.434 3.59,-2.543 3.429,-2.644 3.254,-2.719 3.055,-2.777 2.824,-2.821 2.602,-2.867 2.496,-3.07 2.41,-3.281 2.316,-3.473 2.203,-3.641 2.086,-3.781 1.957,-3.902 1.817,-3.996 1.668,-4.074 1.508,-4.118 1.339,-4.14 1.168,-4.141 0.981,-4.109 0.793,-4.063 0.594,-3.98 0.39,-3.875 0.176,-3.739 -0.055,-3.785 -0.269,-3.929 -0.485,-4.047 -0.691,-4.121 -0.895,-4.164 -1.082,-4.172 -1.265,-4.141 -1.438,-4.078 -1.597,-3.98 -1.746,-3.844 -1.879,-3.676 -1.997,-3.473 -2.093,-3.234 -2.176,-2.961 -2.234,-2.66 -2.422,-2.485 -2.746,-2.472 -3.039,-2.43 -3.293,-2.355 -3.5,-2.25 -3.668,-2.118 -3.793,-1.953 -3.875,-1.769 -3.907,-1.559 -3.894,-1.332 -3.836,-1.082 -3.727,-0.82 -3.562,-0.539 -3.352,-0.262 -3.242,0.027 -3.437,0.27 -3.625,0.496 -3.766,0.719 -3.863,0.937 -3.934,1.141 -3.969,1.336 -3.972,1.519 -3.953,1.692 -3.903,1.847 -3.816,1.993 -3.707,2.117 -3.57,2.23 -3.403,2.324 -3.351,2.555 -10.918,-14.133 3.636,-2.843 3.969,-2.864 4.137,-2.722 4.281,-2.575 4.406,-2.414 4.504,-2.238 4.594,-2.058 4.652,-1.86 4.696,-1.652 4.722,-1.426 4.731,-1.187 4.718,-0.934 4.692,-0.656 4.676,-0.36 4.718,-0.011 4.86,0.402 4.879,0.789 4.879,1.141 4.851,1.457 4.805,1.75 4.734,2.015 4.637,2.262 4.512,2.48 4.351,2.688 4.172,2.871 3.957,3.047 3.715,3.203 3.438,3.356 3.117,3.484 2.843,3.683 2.637,3.926 2.43,4.137 2.226,4.324 2.032,4.477 1.832,4.609 1.629,4.711 1.421,4.789 1.215,4.84 1.004,4.859 0.778,4.86 0.554,4.832 0.317,4.773 0.074,4.699 -0.188,4.582 -0.437,4.485 -0.676,4.519 -0.902,4.551 -1.117,4.567 -1.325,4.57 -1.515,4.555 -1.703,4.519 -1.872,4.469 -2.039,4.398 -2.195,4.313 -2.34,4.207 -2.48,4.082 -2.61,3.933 -2.734,3.774 -2.852,3.59 -2.96,3.386 -3.067,3.172 -3.262,3.071 -3.464,2.988 -3.649,2.894 -3.808,2.797 -3.957,2.684 -4.083,2.555 -4.191,2.421 -4.277,2.266 -4.348,2.102 -4.394,1.922 -4.434,1.73 -4.445,1.52 -4.442,1.296 -4.426,1.059 -4.39,0.801 -4.352,0.523 -4.379,0.219 -4.531,-0.102 -4.637,-0.402 -4.707,-0.684 -4.75,-0.949 -4.754,-1.199 -4.734,-1.437 -4.672,-1.665 -4.578,-1.882 -4.453,-2.082 -4.293,-2.282 -4.098,-2.472 -3.863,-2.657 -3.602,-2.839 -3.289,-3.02 -3,-3.23 -2.828,-3.512 -2.672,-3.77 -2.507,-3.996 -2.34,-4.191 -2.1721,-4.359 -1.9922,-4.504 -1.8008,-4.618 -1.6093,-4.699 -1.4258,-4.605"
         style="fill:#000000;fill-opacity:1;fill-rule:nonzero;stroke:none"
         id="path258" /></g></g></svg>