<?xml version="1.0" encoding="UTF-8" standalone="no"?>
<!-- Created with Inkscape (http://www.inkscape.org/) -->

<svg
   xmlns:dc="http://purl.org/dc/elements/1.1/"
   xmlns:cc="http://creativecommons.org/ns#"
   xmlns:rdf="http://www.w3.org/1999/02/22-rdf-syntax-ns#"
   xmlns:svg="http://www.w3.org/2000/svg"
   xmlns="http://www.w3.org/2000/svg"
   xmlns:sodipodi="http://sodipodi.sourceforge.net/DTD/sodipodi-0.dtd"
   xmlns:inkscape="http://www.inkscape.org/namespaces/inkscape"
   id="svg2"
   version="1.1"
   inkscape:version="0.48.2 r9819"
   width="93.75"
   height="86.25"
   xml:space="preserve"
   sodipodi:docname="logo-fin.eps"><metadata
     id="metadata8"><rdf:RDF><cc:Work
         rdf:about=""><dc:format>image/svg+xml</dc:format><dc:type
           rdf:resource="http://purl.org/dc/dcmitype/StillImage" /><dc:title></dc:title></cc:Work></rdf:RDF></metadata><defs
     id="defs6" /><sodipodi:namedview
     pagecolor="#ffffff"
     bordercolor="#666666"
     borderopacity="1"
     objecttolerance="10"
     gridtolerance="10"
     guidetolerance="10"
     inkscape:pageopacity="0"
     inkscape:pageshadow="2"
     inkscape:window-width="640"
     inkscape:window-height="480"
     id="namedview4"
     showgrid="false"
     inkscape:zoom="2.23"
     inkscape:cx="46.875"
     inkscape:cy="43.125"
     inkscape:window-x="0"
     inkscape:window-y="22"
     inkscape:window-maximized="0"
     inkscape:current-layer="g10" /><g
     id="g10"
     inkscape:groupmode="layer"
     inkscape:label="ink_ext_XXXXXX"
     transform="matrix(1.25,0,0,-1.25,0,86.25)"><g
       id="g12"
       transform="scale(0.1,0.1)"><path
         d="M 380.16,0.5625 C 177.121,-2.32031 -21.6016,148.16 7.92188,367.762 33.1211,555.68 223.199,685.281 404.641,680.238 c 172.8,2.16 354.961,-117.359 316.8,-316.078 -13.679,-70.558 -36,-102.238 -61.921,-144.719 C 612,142.398 461.52,92.7188 492.48,236 l 19.442,90.719 c 4.316,18 4.316,31.683 1.437,41.043 -2.879,9.359 -11.519,14.398 -26.64,14.398 -9.36,0 -18.719,-2.879 -28.078,-8.64 -9.36,-5.758 -17.282,-13.68 -23.039,-23.758 -4.321,-7.922 -8.641,-23.043 -13.68,-45.364 L 406.801,236 c -2.16,-11.52 -6.481,-19.441 -12.961,-25.199 -6.481,-5.039 -13.68,-7.922 -21.602,-7.922 -7.918,0 -13.679,2.883 -18,8.641 -3.597,5.761 -4.316,13.679 -2.16,24.48 l 34.563,157.68 c 2.16,10.082 6.48,18 12.238,23.039 5.043,5.043 12.242,7.922 20.16,7.922 4.32,0 8.641,-1.442 12.242,-3.602 2.879,-2.16 5.758,-5.758 7.199,-10.078 0.719,-5.039 0.719,-10.082 -0.718,-16.563 l -1.442,-6.476 c 12.961,12.238 25.2,21.598 38.16,27.359 12.239,6.481 25.918,9.36 41.04,9.36 14.402,0 26.64,-3.602 36,-9.36 10.082,-6.48 16.558,-15.121 20.16,-26.64 2.16,-7.2 2.879,-14.399 2.16,-21.602 -0.719,-7.918 -2.16,-18 -5.039,-29.519 -2.879,-12.239 -41.039,-138.961 -21.602,-148.321 26.641,-13.679 59.762,38.16 64.082,45.36 10.078,16.562 44.641,69.121 57.598,133.203 C 700.559,532.641 552.961,645.68 403.199,647.121 245.52,647.84 82.0781,525.441 60.4805,365.602 35.2812,174.801 201.602,38 382.32,33.6797 496.801,35.1211 646.559,99.9219 701.281,212.961 720,252.559 756,236.719 744.48,207.922 691.922,69.6797 514.801,-3.03906 380.16,0.5625 l 0,0"
         style="fill:#000000;fill-opacity:1;fill-rule:nonzero;stroke:none"
         id="path14" /><path
         d="m 324.719,449.84 c 7.922,0 14.402,2.16 20.883,7.199 6.476,4.32 10.796,10.801 12.238,19.441 2.16,8.641 0.719,15.122 -3.602,19.442 -5.039,5.039 -10.797,7.199 -17.277,7.199 -7.922,0 -14.402,-2.883 -20.879,-7.199 -7.203,-5.043 -10.801,-11.524 -12.961,-19.442 -1.441,-8.64 0,-15.121 4.32,-19.441 4.321,-5.039 10.079,-7.199 17.278,-7.199 l 0,0"
         style="fill:#000000;fill-opacity:1;fill-rule:nonzero;stroke:none"
         id="path16" /><path
         d="m 339.84,393.68 c 2.16,9.359 1.441,17.281 -2.879,22.32 -4.32,5.762 -10.082,8.641 -18,8.641 -7.922,0 -15.121,-2.879 -21.602,-8.641 -5.757,-5.039 -10.078,-13.68 -12.238,-24.48 L 250.559,236 c -2.161,-10.801 -1.438,-18.719 2.16,-24.48 4.32,-5.758 10.082,-8.641 18,-8.641 7.922,0 15.121,2.883 21.601,7.922 6.481,5.758 10.801,14.398 12.961,25.199 l 34.559,157.68 0,0"
         style="fill:#000000;fill-opacity:1;fill-rule:nonzero;stroke:none"
         id="path18" /><path
         d="m 137.52,419.602 c -18,0 -28.801,-6.481 -31.68,-19.442 -1.442,-5.762 0,-10.801 3.601,-14.398 3.598,-3.602 9.36,-5.762 17.278,-5.762 l 15.121,0 -31.68,-144 c -2.16,-10.801 -1.441,-19.441 2.879,-25.199 3.602,-5.039 9.359,-7.922 17.281,-7.922 7.918,0 15.121,2.883 21.602,7.922 6.476,5.758 10.797,14.398 12.957,25.199 l 31.68,144 12.961,0 c 10.082,0 18,1.441 23.761,3.602 6.481,2.878 10.078,7.918 12.239,17.277 2.878,12.242 -6.481,18.723 -27.36,18.723 l -12.961,0 2.879,12.957 c 2.16,10.8 5.762,18.722 9.363,24.48 4.321,6.481 10.797,9.363 20.879,9.363 3.602,0 7.918,-0.722 12.961,-1.441 5.039,-0.719 8.641,-1.441 10.797,-1.441 4.32,0 8.641,2.16 12.961,5.761 4.32,3.598 6.481,7.918 7.922,12.961 3.598,15.117 -10.801,23.039 -42.481,23.039 -18,0 -33.121,-2.16 -43.921,-6.48 -11.52,-5.039 -20.879,-12.242 -27.36,-22.321 -6.48,-10.078 -11.519,-23.761 -15.121,-40.32 l -3.598,-16.558 -12.96,0"
         style="fill:#000000;fill-opacity:1;fill-rule:nonzero;stroke:none"
         id="path20" /></g></g></svg>