<?xml version="1.0" encoding="UTF-8" standalone="no"?>
<!-- Created with Inkscape (http://www.inkscape.org/) -->

<svg
   xmlns:dc="http://purl.org/dc/elements/1.1/"
   xmlns:cc="http://creativecommons.org/ns#"
   xmlns:rdf="http://www.w3.org/1999/02/22-rdf-syntax-ns#"
   xmlns:svg="http://www.w3.org/2000/svg"
   xmlns="http://www.w3.org/2000/svg"
   xmlns:sodipodi="http://sodipodi.sourceforge.net/DTD/sodipodi-0.dtd"
   xmlns:inkscape="http://www.inkscape.org/namespaces/inkscape"
   id="svg2"
   version="1.1"
   inkscape:version="0.48.2 r9819"
   width="165"
   height="57.5"
   xml:space="preserve"
   sodipodi:docname="OVGU_SIGN_druck_SW_.eps.pdf"><metadata
     id="metadata8"><rdf:RDF><cc:Work
         rdf:about=""><dc:format>image/svg+xml</dc:format><dc:type
           rdf:resource="http://purl.org/dc/dcmitype/StillImage" /><dc:title></dc:title></cc:Work></rdf:RDF></metadata><defs
     id="defs6" /><sodipodi:namedview
     pagecolor="#ffffff"
     bordercolor="#666666"
     borderopacity="1"
     objecttolerance="10"
     gridtolerance="10"
     guidetolerance="10"
     inkscape:pageopacity="0"
     inkscape:pageshadow="2"
     inkscape:window-width="640"
     inkscape:window-height="480"
     id="namedview4"
     showgrid="false"
     inkscape:zoom="2.8363636"
     inkscape:cx="82.5"
     inkscape:cy="28.75"
     inkscape:window-x="0"
     inkscape:window-y="22"
     inkscape:window-maximized="0"
     inkscape:current-layer="g10" /><g
     id="g10"
     inkscape:groupmode="layer"
     inkscape:label="OVGU_SIGN_druck_SW_.eps"
     transform="matrix(1.25,0,0,-1.25,0,57.5)"><path
       d="m 14.417,43.738 -12.596,0 c -1.005,0 -1.82,-0.814 -1.82,-1.821 l 0,-30.325 c 0,-1.007 0.815,-1.82 1.82,-1.82 l 12.794,0 c -4.805,4.046 -7.871,10.189 -7.871,17.07 0,6.782 2.983,12.848 7.673,16.896 m 116.874,-32.146 0,30.325 c 0,1.007 -0.816,1.821 -1.822,1.821 l -85.108,0 c 4.69,-4.048 7.673,-10.114 7.673,-16.896 0,-6.881 -3.066,-13.024 -7.871,-17.07 l 85.306,0 c 1.006,0 1.822,0.813 1.822,1.82"
       style="fill:#656263;fill-opacity:1;fill-rule:nonzero;stroke:none"
       id="path12" /><path
       d="m 61.786,14.455 0.336,0 c 0.137,0 0.264,0.091 0.296,0.231 l 1.248,4.246 c 0.108,0.441 0.226,1.039 0.308,1.388 -0.015,-0.272 -0.063,-1.158 -0.066,-1.4 l -0.016,-4.234 c 0.01,-0.13 0.126,-0.231 0.253,-0.231 l 0.513,0 c 0.137,0 0.253,0.11 0.253,0.231 l 0,6.334 c 0,0.131 -0.116,0.231 -0.253,0.231 l -1.141,0 c -0.127,0 -0.264,-0.09 -0.295,-0.201 l -1.317,-4.622 c -0.063,-0.25 -0.104,-0.677 -0.133,-1.023 -0.031,0.346 -0.071,0.773 -0.134,1.023 l -1.316,4.622 c -0.032,0.111 -0.169,0.201 -0.296,0.201 l -1.145,0 c -0.137,0 -0.254,-0.1 -0.254,-0.231 l 0,-6.334 c 0,-0.121 0.117,-0.231 0.254,-0.231 l 0.517,0 c 0.127,0 0.243,0.101 0.253,0.231 l -0.016,4.234 c -0.003,0.242 -0.051,1.128 -0.066,1.4 0.082,-0.349 0.2,-0.947 0.308,-1.388 l 1.246,-4.246 c 0.031,-0.14 0.158,-0.231 0.295,-0.231 l 0.368,0 z m 9.27,2.642 -1.654,0 0.656,2.652 c 0.07,0.282 0.121,0.666 0.151,0.948 0.041,-0.272 0.081,-0.676 0.151,-0.948 l 0.696,-2.652 z m 14.939,0.736 c 0,-2.027 -0.555,-2.45 -1.543,-2.45 l -0.645,0 0,4.97 0.665,0 c 0.434,0 0.827,-0.15 1.069,-0.463 0.303,-0.393 0.454,-0.978 0.454,-2.057 m 14.061,1.573 c 0,-0.575 -0.353,-0.958 -1.05,-0.958 l -0.886,0 0,1.905 0.948,0 c 0.665,0 0.988,-0.352 0.988,-0.947 m 0.242,-2.904 c 0,-0.687 -0.393,-1.109 -1.03,-1.109 l -1.148,0 0,2.208 0.978,0 c 0.756,0 1.2,-0.484 1.2,-1.099 m 14.393,2.884 c 0,-0.635 -0.414,-1.059 -1.109,-1.059 l -0.807,0 0,1.987 0.918,0 c 0.676,0 0.998,-0.444 0.998,-0.928 m -41.79,-4.649 -1.936,6.283 c -0.05,0.151 -0.171,0.231 -0.302,0.231 l -0.887,0 c -0.132,0 -0.273,-0.09 -0.313,-0.231 l -1.805,-6.283 c -0.041,-0.151 0.03,-0.282 0.181,-0.282 l 0.656,0 c 0.141,0 0.262,0.091 0.292,0.222 l 0.383,1.492 2.128,0 0.403,-1.492 c 0.041,-0.131 0.172,-0.222 0.313,-0.222 l 0.706,0 c 0.151,0 0.232,0.131 0.181,0.282 m 6.616,0.323 0,3.076 c 0,0.131 -0.111,0.242 -0.242,0.242 l -1.705,0 c -0.131,0 -0.242,-0.111 -0.242,-0.242 l 0,-0.474 c 0,-0.131 0.111,-0.242 0.242,-0.242 l 0.888,0 0,-1.987 c -0.202,-0.06 -0.414,-0.091 -0.646,-0.091 -1.068,0 -1.704,0.646 -1.704,2.461 0,1.775 0.545,2.561 1.624,2.561 0.524,0 0.877,-0.121 1.23,-0.292 0.121,-0.061 0.242,0 0.292,0.111 l 0.202,0.433 c 0.061,0.121 0.02,0.241 -0.111,0.313 -0.444,0.232 -1.018,0.382 -1.613,0.382 -1.755,0 -2.763,-1.34 -2.763,-3.437 0,-2.179 0.827,-3.48 2.743,-3.48 0.544,0 1.109,0.101 1.492,0.243 0.242,0.09 0.313,0.191 0.313,0.423 m 7.607,2.834 c 0,2.591 -1.109,3.357 -2.541,3.357 l -1.603,0 c -0.131,0 -0.242,-0.11 -0.242,-0.241 l 0,-6.313 c 0,-0.132 0.111,-0.242 0.242,-0.242 l 1.643,0 c 1.917,0 2.501,1.281 2.501,3.439 m 6.619,-3.197 0,0.493 c 0,0.132 -0.121,0.243 -0.253,0.243 l -2.379,0 0,2.158 2.057,0 c 0.131,0 0.252,0.111 0.252,0.252 l 0,0.424 c 0,0.131 -0.121,0.232 -0.252,0.232 l -2.057,0 0,1.805 2.299,0 c 0.141,0 0.242,0.121 0.242,0.252 l 0,0.454 c 0,0.131 -0.111,0.241 -0.242,0.241 l -3.126,0 c -0.131,0 -0.242,-0.11 -0.242,-0.241 l 0,-6.313 c 0,-0.132 0.111,-0.242 0.242,-0.242 l 3.206,0 c 0.132,0 0.253,0.11 0.253,0.242 m 7.704,1.674 c 0,0.847 -0.484,1.543 -1.402,1.694 0.777,0.252 1.109,0.746 1.109,1.462 0,0.999 -0.685,1.724 -1.855,1.724 l -2.006,0 c -0.131,0 -0.242,-0.11 -0.242,-0.241 l 0,-6.324 c 0,-0.121 0.111,-0.231 0.242,-0.231 l 2.117,0 c 1.291,0 2.037,0.696 2.037,1.916 m 7.121,0.191 0,4.448 c 0,0.151 -0.101,0.241 -0.242,0.241 l -0.574,0 c -0.152,0 -0.254,-0.08 -0.254,-0.241 l 0,-4.397 c 0,-1.029 -0.422,-1.331 -1.168,-1.331 -0.828,0 -1.121,0.504 -1.121,1.391 l 0,4.337 c 0,0.161 -0.09,0.241 -0.242,0.241 l -0.584,0 c -0.141,0 -0.231,-0.09 -0.231,-0.241 l 0,-4.448 c 0,-1.372 0.705,-2.168 2.198,-2.168 1.451,0 2.218,0.767 2.218,2.168 m 7.655,-1.794 c -0.291,0.806 -0.686,1.784 -0.846,2.127 -0.213,0.444 -0.596,0.868 -1.08,0.968 1.039,0.161 1.482,0.867 1.482,1.664 0,0.676 -0.353,1.724 -2.056,1.724 l -1.774,0 c -0.131,0 -0.242,-0.11 -0.242,-0.241 l 0,-6.324 c 0,-0.121 0.111,-0.231 0.242,-0.231 l 0.584,0 c 0.131,0 0.242,0.11 0.242,0.231 l 0,2.774 0.414,0 c 0.604,0 0.907,-0.403 1.139,-0.847 0.283,-0.534 0.453,-1.25 0.686,-1.946 0.05,-0.172 0.16,-0.212 0.302,-0.212 l 0.737,0 c 0.211,0 0.242,0.131 0.17,0.313 m 6.869,0.292 0,3.076 c 0,0.131 -0.112,0.242 -0.242,0.242 l -1.703,0 c -0.133,0 -0.243,-0.111 -0.243,-0.242 l 0,-0.474 c 0,-0.131 0.11,-0.242 0.243,-0.242 l 0.886,0 0,-1.987 c -0.203,-0.06 -0.414,-0.091 -0.646,-0.091 -1.069,0 -1.703,0.646 -1.703,2.461 0,1.775 0.543,2.561 1.623,2.561 0.523,0 0.877,-0.121 1.23,-0.292 0.121,-0.061 0.242,0 0.293,0.111 l 0.201,0.433 c 0.061,0.121 0.02,0.241 -0.111,0.313 -0.443,0.232 -1.018,0.382 -1.613,0.382 -1.756,0 -2.764,-1.34 -2.764,-3.437 0,-2.179 0.828,-3.48 2.744,-3.48 0.543,0 1.11,0.101 1.492,0.243 0.243,0.09 0.313,0.191 0.313,0.423"
       style="fill:#ffffff;fill-opacity:1;fill-rule:nonzero;stroke:none"
       id="path14" /><path
       d="m 93.507,28.294 c 0,-0.637 -0.413,-1.06 -1.109,-1.06 l -0.807,0 0,1.987 0.918,0 c 0.675,0 0.998,-0.444 0.998,-0.927 m 22.335,-2.289 -1.654,0 0.656,2.651 c 0.07,0.283 0.119,0.665 0.15,0.948 0.041,-0.272 0.08,-0.675 0.153,-0.948 l 0.695,-2.651 z m -52.798,-0.535 0,4.447 c 0,0.15 -0.101,0.242 -0.242,0.242 l -0.574,0 c -0.152,0 -0.253,-0.081 -0.253,-0.242 l 0,-4.397 c 0,-1.028 -0.423,-1.332 -1.169,-1.332 -0.827,0 -1.121,0.505 -1.121,1.393 l 0,4.336 c 0,0.161 -0.089,0.242 -0.241,0.242 l -0.585,0 c -0.141,0 -0.232,-0.092 -0.232,-0.242 l 0,-4.447 c 0,-1.371 0.706,-2.168 2.199,-2.168 1.452,0 2.218,0.766 2.218,2.168 m 7.275,-1.875 0,6.332 c 0,0.121 -0.121,0.232 -0.252,0.232 l -0.515,0 c -0.131,0 -0.242,-0.111 -0.242,-0.232 l 0.01,-3.922 c 0,-0.475 0.051,-1.101 0.101,-1.624 -0.141,0.494 -0.262,0.988 -0.443,1.432 l -1.705,4.165 c -0.05,0.111 -0.191,0.181 -0.322,0.181 l -0.948,0 c -0.131,0 -0.242,-0.101 -0.242,-0.232 l 0,-6.332 c 0,-0.122 0.111,-0.233 0.242,-0.233 l 0.534,0 c 0.131,0 0.242,0.111 0.242,0.233 l -0.01,3.993 c 0,0.373 -0.091,1.18 -0.141,1.693 0.131,-0.513 0.262,-1.078 0.444,-1.503 l 1.774,-4.224 c 0.051,-0.121 0.142,-0.192 0.273,-0.192 l 0.948,0 c 0.131,0 0.252,0.111 0.252,0.233 m 4.053,0.009 0,6.313 c 0,0.131 -0.111,0.242 -0.242,0.242 l -0.625,0 c -0.132,0 -0.243,-0.111 -0.243,-0.242 l 0,-6.313 c 0,-0.131 0.111,-0.242 0.243,-0.242 l 0.625,0 c 0.131,0 0.242,0.111 0.242,0.242 m 7.487,6.283 c 0.041,0.14 -0.04,0.272 -0.191,0.272 l -0.605,0 c -0.162,0 -0.262,-0.092 -0.303,-0.253 L 79.6,25.349 c -0.08,-0.324 -0.151,-0.857 -0.211,-1.322 -0.04,0.465 -0.131,0.998 -0.212,1.322 l -1.16,4.568 c -0.04,0.161 -0.151,0.242 -0.312,0.242 l -0.696,0 c -0.151,0 -0.232,-0.132 -0.192,-0.282 l 1.866,-6.293 c 0.04,-0.131 0.171,-0.222 0.303,-0.222 l 0.766,0 c 0.131,0 0.262,0.091 0.302,0.222 l 1.805,6.303 z m 6.054,-6.283 0,0.495 c 0,0.13 -0.121,0.242 -0.252,0.242 l -2.38,0 0,2.158 2.057,0 c 0.131,0 0.253,0.11 0.253,0.252 l 0,0.423 c 0,0.131 -0.122,0.231 -0.253,0.231 l -2.057,0 0,1.806 2.299,0 c 0.142,0 0.242,0.121 0.242,0.252 l 0,0.454 c 0,0.131 -0.111,0.242 -0.242,0.242 l -3.125,0 c -0.132,0 -0.243,-0.111 -0.243,-0.242 l 0,-6.313 c 0,-0.131 0.111,-0.242 0.243,-0.242 l 3.206,0 c 0.131,0 0.252,0.111 0.252,0.242 m 7.127,0.071 c -0.293,0.806 -0.686,1.785 -0.847,2.128 -0.212,0.443 -0.595,0.867 -1.079,0.968 1.038,0.161 1.482,0.867 1.482,1.664 0,0.675 -0.353,1.724 -2.057,1.724 l -1.775,0 c -0.131,0 -0.242,-0.111 -0.242,-0.242 l 0,-6.322 c 0,-0.122 0.111,-0.233 0.242,-0.233 l 0.585,0 c 0.131,0 0.242,0.111 0.242,0.233 l 0,2.773 0.414,0 c 0.604,0 0.907,-0.404 1.139,-0.848 0.282,-0.535 0.454,-1.25 0.686,-1.947 0.05,-0.171 0.161,-0.211 0.302,-0.211 l 0.736,0 c 0.212,0 0.242,0.132 0.172,0.313 m 6.023,1.624 c 0,1.069 -0.616,1.532 -1.332,1.865 l -0.545,0.252 c -0.534,0.253 -0.988,0.454 -0.988,0.988 0,0.555 0.333,0.888 0.988,0.888 0.453,0 0.726,-0.102 1.049,-0.212 0.13,-0.04 0.243,0.03 0.271,0.151 l 0.112,0.454 c 0.029,0.121 -0.011,0.251 -0.132,0.293 -0.342,0.121 -0.836,0.242 -1.32,0.242 -1.291,0 -2.057,-0.797 -2.057,-1.867 0,-0.977 0.565,-1.401 1.19,-1.693 l 0.413,-0.192 c 0.626,-0.292 1.251,-0.565 1.251,-1.25 0,-0.625 -0.484,-0.958 -1.15,-0.958 -0.504,0 -0.968,0.151 -1.351,0.293 -0.141,0.05 -0.272,-0.022 -0.303,-0.153 l -0.121,-0.503 c -0.03,-0.122 0.021,-0.252 0.152,-0.302 0.423,-0.162 1.058,-0.293 1.643,-0.293 1.402,0 2.23,0.817 2.23,1.997 m 3.523,-1.695 0,6.313 c 0,0.131 -0.111,0.242 -0.242,0.242 l -0.625,0 c -0.131,0 -0.242,-0.111 -0.242,-0.242 l 0,-6.313 c 0,-0.131 0.111,-0.242 0.242,-0.242 l 0.625,0 c 0.131,0 0.242,0.111 0.242,0.242 m 6.541,5.819 0,0.494 c 0,0.131 -0.1,0.242 -0.232,0.242 l -3.932,0 c -0.131,0 -0.252,-0.111 -0.252,-0.242 l 0,-0.494 c 0,-0.131 0.121,-0.233 0.252,-0.233 l 1.432,0 0,-5.586 c 0,-0.131 0.111,-0.242 0.242,-0.242 l 0.584,0 c 0.131,0 0.242,0.111 0.242,0.242 l 0,5.586 1.432,0 c 0.132,0 0.232,0.102 0.232,0.233 m 5.521,1.875 c 0,0.333 -0.273,0.586 -0.605,0.586 -0.312,0 -0.574,-0.253 -0.574,-0.586 0,-0.332 0.262,-0.605 0.584,-0.605 0.332,0 0.595,0.273 0.595,0.605 m -2.058,0 c 0,0.333 -0.272,0.586 -0.604,0.586 -0.312,0 -0.574,-0.253 -0.574,-0.586 0,-0.332 0.262,-0.605 0.584,-0.605 0.332,0 0.594,0.273 0.594,0.605 m 3.098,-7.653 -1.938,6.282 c -0.049,0.151 -0.17,0.232 -0.301,0.232 l -0.889,0 c -0.13,0 -0.271,-0.092 -0.312,-0.232 l -1.805,-6.282 c -0.041,-0.151 0.03,-0.283 0.182,-0.283 l 0.654,0 c 0.143,0 0.264,0.091 0.293,0.222 l 0.383,1.493 2.129,0 0.402,-1.493 c 0.041,-0.131 0.172,-0.222 0.313,-0.222 l 0.707,0 c 0.15,0 0.232,0.132 0.182,0.283 m 5.585,5.778 0,0.494 c 0,0.131 -0.101,0.242 -0.232,0.242 l -3.932,0 c -0.132,0 -0.252,-0.111 -0.252,-0.242 l 0,-0.494 c 0,-0.131 0.12,-0.233 0.252,-0.233 l 1.432,0 0,-5.586 c 0,-0.131 0.111,-0.242 0.242,-0.242 l 0.584,0 c 0.131,0 0.242,0.111 0.242,0.242 l 0,5.586 1.432,0 c 0.131,0 0.232,0.102 0.232,0.233"
       style="fill:#ffffff;fill-opacity:1;fill-rule:nonzero;stroke:none"
       id="path16" /><path
       d="m 123.092,34.876 0,0.314 c 0,0.083 -0.078,0.154 -0.16,0.154 l -1.516,0 0,1.373 1.309,0 c 0.084,0 0.162,0.07 0.162,0.161 l 0,0.269 c 0,0.083 -0.078,0.148 -0.162,0.148 l -1.309,0 0,1.147 1.463,0 c 0.09,0 0.154,0.078 0.154,0.161 l 0,0.289 c 0,0.084 -0.07,0.154 -0.154,0.154 l -1.988,0 c -0.084,0 -0.155,-0.07 -0.155,-0.154 l 0,-4.016 c 0,-0.084 0.071,-0.154 0.155,-0.154 l 2.041,0 c 0.082,0 0.16,0.07 0.16,0.154"
       style="fill:#ffffff;fill-opacity:1;fill-rule:nonzero;stroke:none"
       id="path18" /><path
       d="m 119.357,34.901 -1.379,2.214 1.251,1.751 c 0.052,0.077 0.044,0.18 -0.084,0.18 l -0.487,0 c -0.097,0 -0.154,-0.025 -0.205,-0.103 l -1.129,-1.713 0,1.663 c 0,0.082 -0.072,0.153 -0.154,0.153 l -0.373,0 c -0.082,0 -0.154,-0.071 -0.154,-0.153 l 0,-4.024 c 0,-0.077 0.072,-0.148 0.154,-0.148 l 0.373,0 c 0.082,0 0.154,0.071 0.154,0.148 l 0,2.098 1.213,-2.13 c 0.051,-0.09 0.121,-0.116 0.217,-0.116 l 0.519,0 c 0.11,0 0.149,0.077 0.084,0.18"
       style="fill:#ffffff;fill-opacity:1;fill-rule:nonzero;stroke:none"
       id="path20" /><path
       d="m 115.197,35.055 -0.142,0.308 c -0.026,0.064 -0.102,0.09 -0.18,0.058 -0.127,-0.058 -0.346,-0.122 -0.5,-0.122 -0.623,0 -1.045,0.455 -1.045,1.598 0,1.135 0.398,1.591 1.045,1.591 0.18,0 0.334,-0.045 0.477,-0.109 0.082,-0.039 0.146,-0.013 0.185,0.058 l 0.133,0.262 c 0.045,0.084 0.014,0.167 -0.063,0.212 -0.238,0.141 -0.533,0.173 -0.783,0.173 -1.039,0 -1.713,-0.853 -1.713,-2.181 0,-1.431 0.635,-2.22 1.688,-2.22 0.353,0 0.615,0.071 0.84,0.186 0.058,0.026 0.097,0.103 0.058,0.186"
       style="fill:#ffffff;fill-opacity:1;fill-rule:nonzero;stroke:none"
       id="path22" /><path
       d="m 110.977,34.876 0,4.016 c 0,0.084 -0.069,0.154 -0.155,0.154 l -0.396,0 c -0.084,0 -0.154,-0.07 -0.154,-0.154 l 0,-4.016 c 0,-0.084 0.07,-0.154 0.154,-0.154 l 0.396,0 c 0.086,0 0.155,0.07 0.155,0.154"
       style="fill:#ffffff;fill-opacity:1;fill-rule:nonzero;stroke:none"
       id="path24" /><path
       d="m 107.123,37.186 -0.512,0 0,1.263 0.584,0 c 0.43,0 0.635,-0.282 0.635,-0.59 0,-0.404 -0.264,-0.673 -0.707,-0.673 m 0.457,-0.295 c 0.66,0.102 0.943,0.551 0.943,1.058 0,0.43 -0.224,1.097 -1.31,1.097 l -1.129,0 c -0.082,0 -0.152,-0.07 -0.152,-0.153 l 0,-4.024 c 0,-0.077 0.07,-0.147 0.152,-0.147 l 0.373,0 c 0.084,0 0.154,0.07 0.154,0.147 l 0,1.764 0.262,0 c 0.385,0 0.578,-0.256 0.727,-0.539 0.179,-0.34 0.289,-0.795 0.435,-1.238 0.033,-0.109 0.104,-0.134 0.193,-0.134 l 0.467,0 c 0.135,0 0.155,0.084 0.11,0.198 -0.186,0.514 -0.436,1.137 -0.537,1.354 -0.137,0.283 -0.379,0.552 -0.688,0.617"
       style="fill:#ffffff;fill-opacity:1;fill-rule:nonzero;stroke:none"
       id="path26" /><path
       d="m 104.311,34.876 0,0.314 c 0,0.083 -0.079,0.154 -0.163,0.154 l -1.512,0 0,1.373 1.307,0 c 0.084,0 0.163,0.07 0.163,0.161 l 0,0.269 c 0,0.083 -0.079,0.148 -0.163,0.148 l -1.307,0 0,1.147 1.462,0 c 0.09,0 0.154,0.078 0.154,0.161 l 0,0.289 c 0,0.084 -0.07,0.154 -0.154,0.154 l -1.988,0 c -0.085,0 -0.154,-0.07 -0.154,-0.154 l 0,-4.016 c 0,-0.084 0.069,-0.154 0.154,-0.154 l 2.038,0 c 0.084,0 0.163,0.07 0.163,0.154"
       style="fill:#ffffff;fill-opacity:1;fill-rule:nonzero;stroke:none"
       id="path28" /><path
       d="m 100.123,36.062 0,2.831 c 0,0.095 -0.064,0.154 -0.154,0.154 l -0.365,0 c -0.097,0 -0.16,-0.053 -0.16,-0.154 l 0,-2.798 c 0,-0.655 -0.271,-0.848 -0.745,-0.848 -0.527,0 -0.713,0.321 -0.713,0.887 l 0,2.759 c 0,0.101 -0.057,0.154 -0.154,0.154 l -0.372,0 c -0.089,0 -0.147,-0.059 -0.147,-0.154 l 0,-2.831 c 0,-0.872 0.449,-1.378 1.398,-1.378 0.924,0 1.412,0.486 1.412,1.378"
       style="fill:#ffffff;fill-opacity:1;fill-rule:nonzero;stroke:none"
       id="path30" /><path
       d="m 95.514,35.106 0,1.958 c 0,0.083 -0.072,0.154 -0.155,0.154 l -1.084,0 c -0.084,0 -0.153,-0.071 -0.153,-0.154 l 0,-0.302 c 0,-0.083 0.069,-0.154 0.153,-0.154 l 0.564,0 0,-1.264 c -0.128,-0.038 -0.262,-0.058 -0.409,-0.058 -0.681,0 -1.085,0.41 -1.085,1.566 0,1.128 0.346,1.629 1.032,1.629 0.334,0 0.559,-0.077 0.784,-0.186 0.076,-0.038 0.154,0 0.186,0.07 l 0.129,0.277 c 0.038,0.077 0.011,0.155 -0.072,0.199 -0.281,0.147 -0.648,0.243 -1.027,0.243 -1.115,0 -1.757,-0.853 -1.757,-2.187 0,-1.386 0.526,-2.213 1.744,-2.213 0.347,0 0.706,0.063 0.951,0.153 0.153,0.058 0.199,0.122 0.199,0.269"
       style="fill:#ffffff;fill-opacity:1;fill-rule:nonzero;stroke:none"
       id="path32" /><path
       d="m 88.422,34.869 0,4.03 c 0,0.076 -0.077,0.147 -0.16,0.147 l -0.328,0 c -0.083,0 -0.154,-0.071 -0.154,-0.147 l 0.007,-2.497 c 0,-0.301 0.032,-0.699 0.064,-1.032 -0.09,0.314 -0.167,0.628 -0.282,0.91 l -1.085,2.651 c -0.032,0.07 -0.122,0.115 -0.205,0.115 l -0.603,0 c -0.084,0 -0.154,-0.064 -0.154,-0.147 l 0,-4.03 c 0,-0.077 0.07,-0.147 0.154,-0.147 l 0.34,0 c 0.083,0 0.154,0.07 0.154,0.147 l -0.006,2.541 c 0,0.237 -0.058,0.751 -0.09,1.078 0.083,-0.327 0.166,-0.687 0.281,-0.956 l 1.13,-2.689 c 0.032,-0.077 0.09,-0.121 0.174,-0.121 l 0.603,0 c 0.083,0 0.16,0.07 0.16,0.147"
       style="fill:#ffffff;fill-opacity:1;fill-rule:nonzero;stroke:none"
       id="path34" /><path
       d="m 83.285,36.884 c 0,-1 -0.167,-1.637 -0.803,-1.637 -0.603,0 -0.794,0.553 -0.794,1.637 0,0.853 0.083,1.655 0.794,1.655 0.662,0 0.803,-0.731 0.803,-1.655 m 0.706,-0.02 c 0,1.495 -0.513,2.22 -1.502,2.22 -1.008,0 -1.514,-0.763 -1.514,-2.22 0,-1.475 0.513,-2.18 1.514,-2.18 0.994,0 1.502,0.717 1.502,2.18"
       style="fill:#ffffff;fill-opacity:1;fill-rule:nonzero;stroke:none"
       id="path36" /><path
       d="m 79.907,38.873 c 0.026,0.09 -0.027,0.173 -0.122,0.173 l -0.386,0 c -0.103,0 -0.167,-0.058 -0.191,-0.16 L 78.47,35.985 C 78.418,35.78 78.373,35.44 78.335,35.145 78.309,35.44 78.251,35.78 78.2,35.985 l -0.739,2.907 c -0.024,0.103 -0.095,0.154 -0.198,0.154 l -0.442,0 c -0.097,0 -0.149,-0.083 -0.122,-0.179 l 1.187,-4.004 c 0.025,-0.085 0.109,-0.141 0.192,-0.141 l 0.487,0 c 0.083,0 0.167,0.056 0.193,0.141 l 1.149,4.01"
       style="fill:#ffffff;fill-opacity:1;fill-rule:nonzero;stroke:none"
       id="path38" /><path
       d="m 72.148,36.884 c 0,-1 -0.167,-1.637 -0.802,-1.637 -0.603,0 -0.795,0.553 -0.795,1.637 0,0.853 0.083,1.655 0.795,1.655 0.661,0 0.802,-0.731 0.802,-1.655 m 0.706,-0.02 c 0,1.495 -0.513,2.22 -1.501,2.22 -1.008,0 -1.515,-0.763 -1.515,-2.22 0,-1.475 0.514,-2.18 1.515,-2.18 0.994,0 1.501,0.717 1.501,2.18"
       style="fill:#ffffff;fill-opacity:1;fill-rule:nonzero;stroke:none"
       id="path40" /><path
       d="m 68.897,38.577 0,0.316 c 0,0.083 -0.065,0.154 -0.147,0.154 l -2.504,0 c -0.083,0 -0.16,-0.071 -0.16,-0.154 l 0,-0.316 c 0,-0.083 0.077,-0.146 0.16,-0.146 l 0.911,0 0,-3.555 c 0,-0.085 0.071,-0.154 0.155,-0.154 l 0.371,0 c 0.084,0 0.154,0.069 0.154,0.154 l 0,3.555 0.913,0 c 0.082,0 0.147,0.063 0.147,0.146"
       style="fill:#ffffff;fill-opacity:1;fill-rule:nonzero;stroke:none"
       id="path42" /><path
       d="m 65.144,38.577 0,0.316 c 0,0.083 -0.064,0.154 -0.148,0.154 l -2.502,0 c -0.083,0 -0.16,-0.071 -0.16,-0.154 l 0,-0.316 c 0,-0.083 0.077,-0.146 0.16,-0.146 l 0.911,0 0,-3.555 c 0,-0.085 0.071,-0.154 0.154,-0.154 l 0.372,0 c 0.084,0 0.154,0.069 0.154,0.154 l 0,3.555 0.911,0 c 0.084,0 0.148,0.063 0.148,0.146"
       style="fill:#ffffff;fill-opacity:1;fill-rule:nonzero;stroke:none"
       id="path44" /><path
       d="m 60.752,36.884 c 0,-1 -0.167,-1.637 -0.801,-1.637 -0.603,0 -0.796,0.553 -0.796,1.637 0,0.853 0.084,1.655 0.796,1.655 0.661,0 0.801,-0.731 0.801,-1.655 m 0.706,-0.02 c 0,1.495 -0.512,2.22 -1.501,2.22 -1.007,0 -1.515,-0.763 -1.515,-2.22 0,-1.475 0.514,-2.18 1.515,-2.18 0.995,0 1.501,0.717 1.501,2.18"
       style="fill:#ffffff;fill-opacity:1;fill-rule:nonzero;stroke:none"
       id="path46" /><path
       d="m 28.054,19.588 c -0.002,0.064 -0.154,0.038 -0.219,0.036 -0.088,-0.004 -0.121,-0.206 -0.192,-0.157 -0.18,0.122 -0.383,0.307 -0.392,0.564 l -0.546,-0.02 c -0.005,0.15 -0.346,0.057 -0.295,-0.145 0.065,0.003 0.323,-0.025 0.321,0.018 0.229,-0.248 0.469,-0.261 0.563,-0.429 0.139,-0.252 0.062,-0.532 0.262,-0.653 0.049,0.514 0.511,0.424 0.498,0.786 m 7.24,11.332 c -0.003,0.17 -0.026,0.213 -0.051,0.405 l -0.15,-0.174 c -0.1,0.032 -0.246,0.405 -0.373,0.549 l -0.272,-0.048 c 0.115,-0.339 0.513,-0.439 0.43,-0.718 -0.014,-0.047 0.286,-0.102 0.416,-0.014 m -1.77,-0.097 c 0.33,-1.49 1.315,-1.535 1.315,-1.535 l 0.189,0.199 c 0,0 -0.984,0.046 -1.315,1.536 -0.08,-0.045 -0.189,-0.2 -0.189,-0.2 m -2.697,-1.372 -0.454,-0.008 0.004,-0.191 0.306,0.005 0.006,-0.28 0.174,0.003 -0.036,0.471 z m 0.688,1.229 c 0,0 -0.096,-0.772 0.601,-0.695 l -0.108,-0.088 c -0.72,-0.056 -0.601,0.694 -0.493,0.783 m 0.786,-0.203 -0.415,-0.008 -0.004,0.235 0.415,0.007 0.004,-0.234 z m -3.119,-0.226 c 0.001,-0.085 -0.019,-0.192 0.005,-0.319 l 0.482,-0.014 -0.069,0.17 c 0,0 0.02,0.107 0.019,0.171 l 0.196,0.09 c 0.262,-0.039 0.369,-0.61 0.915,-0.515 0.021,0.004 -0.014,0.189 -0.014,0.189 -0.504,0.098 -0.531,0.375 -0.531,0.375 0.363,0.583 0.975,0.595 0.976,0.488 L 31.1,30.628 c 0.009,-0.576 0.149,-1.086 0.827,-1.073 0.48,0.009 0.87,0.272 0.994,0.68 0.111,-0.062 0.209,-0.199 0.269,-0.337 0.09,-0.212 0.003,-0.235 0.006,-0.406 0.001,-0.064 -0.262,-0.047 -0.17,-0.345 l 0.33,-0.015 0.254,0.411 c -0.008,0.533 -0.568,1.356 -1.14,1.56 -0.176,0.06 -0.462,0.183 -0.791,0.198 L 30.98,31.288 c -0.196,-0.024 -0.478,-0.222 -0.478,-0.222 -0.338,-0.088 -0.31,0.293 -0.31,0.293 0.15,0.203 0.17,0.26 0.78,0.442 l 0.808,0.058 c -0.036,0.067 0.048,0.235 0.048,0.235 -1.508,-0.006 -1.979,-0.647 -2.074,-0.742 -0.043,-0.043 -0.3,-0.37 -0.299,-0.434 0.001,-0.021 0.286,-0.058 0.286,-0.058 l 0.084,0.172 c 0.11,-0.018 0.262,0.005 0.264,-0.101 0.004,-0.257 -0.194,-0.154 -0.189,-0.453 L 29.725,30.476 C 29.463,30.47 29.177,30.55 29.182,30.251 M 28.777,26.453 28.58,26.446 c 0.014,-0.128 0.054,-0.196 0.099,-0.317 0.068,-0.185 -0.078,-0.28 0.256,-0.439 l 0.021,-0.599 0.189,-0.004 -0.029,0.79 -0.165,-0.017 -0.174,0.593 z m 1.297,6.763 c -0.197,0.017 -0.342,-0.498 -0.843,-0.55 -0.675,-0.069 -0.927,0.453 -1.153,0.897 0.022,0.043 -0.073,0.448 -0.095,0.49 l -0.174,-0.089 c 0.012,-0.705 0.288,-1.532 0.991,-1.755 l 0.01,-0.598 0.218,0.026 c 0.088,0.002 0.105,0.279 0.19,0.452 0.021,0.043 0.302,0.263 0.519,0.309 0.307,0.048 0.654,0.12 1.07,0.126 l -0.004,0.256 -0.503,-0.008 -0.177,0.081 0.107,0.259 c -0.024,0.042 -0.091,0.098 -0.156,0.104 m 5.464,-1.544 c 0.024,-0.085 -0.442,0.762 -0.621,0.992 -0.268,0.337 -0.399,0.335 -0.644,0.651 -0.135,0.189 -0.358,0.802 -0.593,0.819 -0.722,0.051 -1.21,-0.383 -1.581,-0.41 -0.201,-0.016 0.149,0.237 0.149,0.237 0.063,0.193 -1.272,0.254 -1.272,0.254 0,0 -0.984,0.003 -1.042,-0.446 l 0.002,-0.17 0.819,-0.138 c 0.351,-0.1 0.415,0.029 0.831,-0.026 l 0.765,0.013 0.679,0.204 0.361,-0.033 c 0.11,0.002 0.215,-0.152 0.257,-0.233 0.248,-0.486 0.508,-0.545 0.877,-0.9 0.703,-0.677 0.709,-0.947 1.013,-0.814 m -12.037,-0.723 -0.122,-0.282 -0.009,0.278 0.131,0.004 z m -1.008,0.05 c 0,0 0.219,-0.088 0.291,-0.203 0.046,-0.072 0.051,-0.212 0.051,-0.212 -0.115,-0.175 -0.553,0.194 -0.342,0.415 m 3.624,-8.652 c 0.231,0.24 0.093,0.437 0.246,0.415 0.196,-0.029 0.328,-0.403 0.328,-0.403 0,0 0.012,-0.153 0.251,-0.373 0.255,-0.235 0.998,-0.27 1.338,-0.426 l 0.708,-0.813 c -0.339,0.044 -0.622,0.212 -0.843,0.34 -0.987,0.623 -1.706,-0.161 -1.706,-0.161 -0.651,0.608 -0.928,0.456 -2.099,-0.154 -0.324,-0.169 -0.524,0.103 -0.2,0.155 0.091,0.047 0.451,0.744 0.698,0.804 0.387,0.095 0.946,0.267 1.279,0.616 m 14.379,0.639 c -0.654,-0.065 -1.023,0.478 -1.023,0.478 -0.825,-1.44 -1.6,-0.525 -1.6,-0.525 0.004,1.025 -1.306,-5.215 -1.505,-6.173 -0.375,-0.709 -1.782,-3.261 -6.12,-4.555 l 0.161,0.086 c 0.369,0.212 0.486,0.528 0.744,0.9 0.225,0.324 0.417,0.484 0.535,0.853 0.023,0.077 -0.065,0.212 -0.165,0.382 0.194,0.007 0.825,0.557 1.013,0.748 0.566,0.568 1.053,0.89 1.553,1.478 0.645,0.776 1.237,1.203 1.709,1.973 0.328,0.54 0.443,0.951 0.528,1.626 0.139,0.982 0.573,2.219 0.624,3.259 -0.327,-0.581 -0.464,-0.993 -0.579,-1.446 -0.191,-0.718 -0.22,-1.147 -0.413,-1.804 -0.194,-0.66 -0.263,-1.171 -0.68,-1.653 -0.354,-0.42 -0.734,-0.718 -1.135,-1.016 -1.139,-0.864 -1.88,-2.164 -3.473,-2.496 -0.78,0.582 -1.767,1.166 -2.039,1.131 0,0 -0.352,-0.098 -0.566,-0.105 l -0.089,-0.559 c 0,0 0.316,-0.128 0.308,-0.053 -0.033,0.34 0.27,0.364 0.255,0.201 -0.016,-0.172 0.262,-1.231 -0.178,-1.781 -0.08,-0.099 0.037,1.456 -0.438,1.268 l -0.172,-0.712 -0.219,-0.007 c 0,0 0.039,0.151 0.023,0.599 -0.015,0.433 -0.143,0.798 -0.811,1.139 -0.141,0.071 -0.15,-0.874 -0.286,-1.028 l -0.496,-0.231 c -0.091,0.311 -0.222,0.72 -0.069,0.725 0.461,0.015 0.252,0.4 0.37,0.675 0.076,0.176 0.207,0.224 0.177,0.458 -0.12,0.934 0.018,2.101 -0.135,2.096 -0.128,-0.005 -0.234,-0.07 -0.329,0.01 -0.097,0.084 -0.011,0.32 -0.011,0.32 -0.479,-0.058 -0.279,-2.04 -0.279,-2.04 -0.2,-0.281 -0.618,-0.56 -0.817,-0.761 0,0 -0.148,-0.114 -0.179,-0.099 -0.563,0.005 -1.137,-0.952 -1.137,-0.952 -0.215,-0.048 -0.965,1.293 -0.998,1.267 -0.102,0.444 0.093,0.146 -0.256,1.107 -0.054,0.364 -0.455,1.838 -0.512,1.922 -0.797,0.808 -0.707,4.379 -1.051,5.276 -0.207,0.537 -0.929,0.715 -1.001,1.349 -0.127,1.119 0.059,1.607 0.255,2.615 0.057,0.287 0.009,0.475 0.148,0.737 0.161,0.302 0.338,0.552 0.697,0.568 0.326,0.015 0.396,-0.304 0.672,-0.467 0.239,-0.141 0.347,-0.311 0.625,-0.342 1.01,-0.115 0.912,0.202 0.912,0.202 l 0.493,0.274 c -0.157,0.101 -0.409,-0.077 -0.675,-0.088 -0.299,-0.012 -0.484,-0.034 -0.768,0.059 -0.289,0.095 -0.834,0.275 -0.607,0.47 0.159,0.136 0.25,-0.246 0.548,-0.023 0,0 -0.484,0.412 -0.332,0.737 -0.096,0.096 0.047,0.229 0.164,0.304 0.102,0.065 0.219,0.073 0.304,0.076 0,0 -0.122,-0.45 -0.019,-0.707 0.118,-0.291 0.331,-0.435 0.652,-0.512 0.199,-0.047 0.33,-0.024 0.524,0.04 0.284,0.094 0.496,0.21 0.551,0.512 0.033,0.182 0.011,0.298 0.071,0.472 0,0 0.184,-0.271 0.365,-0.435 0.114,-0.105 -0.003,-0.252 0.079,-0.384 0.056,-0.089 0.119,-0.131 0.225,-0.163 0.147,-0.044 0.27,-0.033 0.518,0.189 0.043,0.083 0.07,0.125 0.014,0.236 -0.118,0.231 -0.277,-0.223 -1.077,0.754 -0.181,0.22 -0.385,0.247 -0.667,0.318 -0.339,0.087 -0.529,0.11 -0.899,0.055 -0.098,-0.035 -0.12,0.006 -0.225,0.184 0,0 0.089,0.112 0.169,0.155 0.447,0.242 1.073,-0.027 1.307,0.174 -0.353,0.073 -0.186,0.155 -0.335,0.181 -0.505,0.09 -0.373,0.052 -1.16,0.023 0,0 -0.457,-0.08 -0.732,-0.325 -0.24,-0.213 -0.527,-0.574 -0.527,-0.574 -0.106,-0.056 -0.194,0.169 -0.226,0.206 0,0 0.257,0.598 0.56,0.875 0.312,0.286 0.601,0.362 0.966,0.525 0.33,0.146 0.566,-0.035 0.922,-0.095 0.388,-0.068 0.552,-0.153 0.972,-0.266 0.285,-0.078 0.243,-0.43 0.522,-0.538 0.073,-0.027 0.141,0.015 0.198,-0.036 0.065,-0.057 0.042,-0.149 -0.014,-0.214 -0.122,-0.141 -0.304,0.028 -0.485,0.09 -0.105,0.036 -0.134,0.125 -0.245,0.141 -0.077,0.011 -0.12,-0.018 -0.195,-0.028 -0.263,-0.033 0.334,-0.229 0.516,-0.41 0.216,-0.212 0.186,-0.505 0.481,-0.603 0.137,-0.045 0.249,0.043 0.373,-0.029 0.151,-0.089 0.152,-0.232 0.167,-0.399 0.006,-0.072 0.009,-0.134 0.005,-0.193 -0.014,-0.482 -0.365,-0.639 -0.461,-0.742 -0.334,-0.357 -0.15,-1.897 -0.105,-2.567 0,0 -0.858,-1.496 -0.267,-2.249 0.181,-0.233 0.18,-0.239 0.672,-0.668 0,0 -0.35,-1.016 -0.611,-1.08 -0.242,0.052 -1.558,-0.415 -1.83,-1.32 l -0.035,-0.246 c 0.003,-0.093 -0.678,-0.138 -1.182,0.325 -0.139,0.129 -0.239,-0.929 -0.023,-1.512 0.096,-0.283 0.245,-0.807 0.975,-0.618 0.249,0.015 0.766,0.114 0.943,0.318 0.045,-0.046 1.239,-0.71 1.737,-0.693 0.649,0.023 0.91,0.425 0.906,0.519 0,0 -0.262,0.012 -0.568,-0.02 -1.058,-0.111 -0.979,0.478 -0.979,0.478 0.407,0.25 0.448,0.31 0.945,0.235 0.398,-0.06 0.459,-0.086 0.7,-0.208 0.048,-0.006 0.177,-0.005 0.239,0.016 0.322,0.113 0.661,0.329 1.411,0.201 0.171,-0.029 0.761,-0.408 1.39,-0.165 l -0.181,0.076 0.325,-0.009 -0.144,-0.067 c 0.35,-0.133 0.191,0.039 0.606,0.022 0.548,-0.025 0.329,-1.25 1.677,-1.054 0.61,0.089 0.489,2.282 0.489,2.282 l -0.284,-0.009 c 0.005,-0.748 -0.236,-1.25 -0.432,-1.266 -0.436,-0.036 -0.437,0.467 -1.325,0.842 0,0 -0.304,0.386 0.113,0.337 0.33,-0.039 0.362,-0.64 1.187,-0.447 l 0.007,0.669 c -1.247,-0.044 -1.237,1.128 -2.568,1.107 -0.45,-0.009 0.144,-0.38 -0.401,-0.421 -0.371,-0.028 -0.171,0.204 -0.818,0.1 -0.174,-0.028 -0.457,0.41 -0.417,0.683 0.037,0.258 0.283,0.079 0.338,0.332 0,0 -0.312,0.915 0.303,0.873 0.296,-0.021 0.839,-0.869 1.132,0.125 0.155,0.007 -0.131,0.038 -0.131,0.038 -0.077,0.069 -0.056,-0.325 -0.3,-0.203 -0.401,0.2 -0.254,0.376 -0.886,0.311 -0.92,-0.093 -0.654,-0.999 -0.912,-0.822 -1.367,0.935 -1.954,1.449 -1.112,3.06 l 0.119,-0.317 c -0.055,0.96 -0.177,2.559 0.025,3.037 0.086,0.203 0.12,0.585 0.171,0.883 0.155,0.949 0.147,2.053 -0.19,2.172 -1.052,0.369 -0.798,1.341 -1.886,1.466 l -1.993,-0.057 c 0,0 -0.279,1.138 1.02,1.527 0,0 -0.151,1.534 0.283,1.932 0.339,0.311 0.963,-0.009 0.708,1.008 -0.046,0.185 -0.169,0.174 -0.272,0.289 -0.24,0.27 -0.355,0.116 -0.594,0.706 -0.153,0.377 0.71,0.966 0.71,0.966 3.036,-0.493 4.063,2.144 4.063,2.144 1.127,-2.033 3.645,-1.806 3.645,-1.806 0.608,-0.02 1.259,-0.038 1.848,-0.75 0.403,-0.488 0.486,-0.851 1.125,-1.182 0.662,-0.342 1.211,0.083 1.211,0.083 -0.696,0.057 -1.183,0.433 -1.479,1.012 -1.074,2.099 -2.107,1.978 -2.399,1.893 0.26,0.122 0.241,0.381 1.166,0.257 1.344,-0.18 2,-2.436 2.864,-2.546 1.318,-0.167 1.284,-0.4 0.976,-1.607 -0.385,-1.51 -0.454,-2.892 -0.012,-4.66 0.269,-1.071 1.047,-1.506 1.141,-2.61 0.149,-1.748 -0.605,-2.295 -0.03,-4.147 0.394,-1.269 -0.256,-2.702 1.168,-3.379 l 0.167,0.219 c -1.383,0.765 -0.505,1.949 -0.505,1.949 -0.014,-2.095 1.696,-2.206 1.696,-2.206 -0.567,0.385 -0.111,0.68 -0.111,0.68 0.735,0.239 1.141,-1.097 0.216,-1.19 M 23.984,14.205 c 0.01,-0.285 0.06,-0.466 0.026,-0.752 -0.071,0.181 -0.28,0.58 -0.28,0.58 0.043,0.023 0.199,0.516 0.197,0.577 0.071,0.43 0.21,0.801 0.553,0.915 C 24.443,15.34 24.31,15.22 24.156,14.883 23.994,14.531 23.974,14.49 23.984,14.205 M 22.422,13.77 c 0.549,-1.673 2.555,-1.89 3.171,-2.122 0.207,-0.078 0.541,-0.065 0.541,-0.065 L 25.804,9.465 C 21.617,4.714 19.901,1.35 19.901,1.35 c -0.602,2.79 -0.356,8.379 -0.356,8.379 0,0 1.542,2.201 2.877,4.041 m 5.046,-4.416 0.249,1.863 c 7.688,0.9 9.111,5.121 9.111,5.121 0,0 0.447,0.71 0.522,0.482 1.071,-3.295 3.029,-6.211 3.029,-6.211 L 34.694,1.091 c -0.306,0.357 -6.565,7.967 -7.226,8.263 m -10.9,12.121 c 0.038,-1.068 -0.97,-1.659 -1.888,-1.691 0,0 -0.025,0.107 -0.115,0.167 0.918,0.032 1.854,0.513 1.815,1.581 0,0 0.185,0.028 0.188,-0.057 m 31.429,4.103 c 0.025,2.438 -1.456,1.619 -1.959,2.861 -0.478,1.176 0.401,2.339 -0.593,3.184 -0.354,0.301 -0.672,0.311 -1.069,0.562 -1.057,0.668 -1.839,1.583 -2.244,2.229 -0.394,0.627 0.03,1.255 -0.373,1.91 -0.215,0.348 -0.543,0.416 -0.706,0.788 -0.165,0.377 0.192,0.735 -0.08,1.044 -0.456,0.518 -0.886,0.931 -1.255,2.093 -1.12,3.533 -2.557,3.074 -2.871,3.277 -0.863,0.558 -2.353,1.236 -3.444,1.525 -1.281,0.341 -2.049,0.451 -3.035,0.471 -1.533,0.033 -1.831,-0.497 -2.062,-0.478 C 25.3,45.303 23.91,44.378 22.169,43.505 20.001,42.418 18.818,40.46 18.268,38.689 17.994,37.808 17.746,37.324 17.428,36.415 17.23,35.853 16.892,35.478 16.42,35.227 15.99,34.997 15.692,34.751 15.102,34.731 14.6,34.713 13.945,34.444 13.809,34.173 l 0.034,-0.978 c 0,0 0.284,0.084 0.748,0.513 0.36,0.333 0.679,-0.018 1.492,-0.119 1.905,-0.061 2.947,1.118 3.059,1.368 0.163,0.349 -0.002,1.304 0.212,1.461 l 0.305,0.012 c -0.071,-0.574 0.041,-1.254 -0.416,-1.874 -0.572,-0.781 -1.348,-0.985 -1.56,-1.06 -1.235,-0.441 -1.892,-0.265 -2.512,-0.187 -0.715,0.09 -0.052,-1.028 -2.091,-0.808 -0.686,0.075 -1.386,-0.545 -1.405,-1.117 -0.02,-0.612 0.044,-2.927 0.112,-3.084 l 1.002,-0.877 c 0,0 -0.225,1.139 0.527,0.812 1.054,-0.456 2.868,-0.018 3.04,0.117 -0.383,-0.356 -0.436,-0.751 -0.729,-1.125 -0.651,-0.792 -1.979,-1.241 -1.659,-2.676 0.67,-2.989 -0.723,-2.838 -0.723,-2.838 -0.873,-0.029 -1.515,1.209 -1.515,1.209 l 0.063,-1.321 c -0.012,-0.684 1.297,-2.219 2.201,-1.844 l 0.594,-1.16 c 2.139,-0.351 0.017,-1.976 0.037,-2.574 l 0.889,-1.864 c 0.046,0.152 0.135,1.97 1.013,1.894 0.825,-0.072 0.903,-0.822 0.903,-0.822 -1.513,-1.138 0.315,-3.014 1.393,-3.584 0,0 0.135,0.245 0.379,0.294 -0.532,0.196 -0.869,0.593 -0.766,0.964 0.106,0.381 0.187,0.318 0.499,0.416 0.396,0.126 0.502,0.018 0.868,0.202 0.389,0.195 0.528,-0.354 0.883,-0.247 0.265,0.08 0.669,0.417 1.045,0.669 -0.664,-0.858 -1.242,-2.08 -2.496,-3.751 -0.244,-0.325 -0.266,-2.925 -0.14,-5.428 l 0.022,-0.41 c 0.114,-2.006 0.322,-3.868 0.584,-4.338 0.033,-0.058 -0.168,-0.086 1.132,1.867 l 0.315,0.488 c 1.398,2.213 3.365,4.889 5.241,6.621 l 0.423,2.631 c 0.105,-0.022 0.216,-0.034 0.333,-0.03 L 26.852,8.996 c 0.556,-0.153 1.567,-1.497 4.203,-4.715 l 0.463,-0.564 c 1.5,-1.826 3.32,-3.807 3.406,-3.674 0.507,0.78 6.312,10.429 6.312,10.429 0,0 -1.705,2.41 -2.21,4.002 0.62,0.609 0.578,0.017 2.197,-1.036 1.254,-0.817 1.753,-0.068 1.753,-0.068 0,0 -1.165,0.69 -1.168,1.383 -0.009,1.536 0.622,1.484 0.949,1.442 0.777,-0.101 0.415,-0.797 0.415,-0.797 l 0.818,0.007 c 0,0 0.267,0.16 0.352,0.333 0.593,1.215 -2.075,1.878 -2.511,2.259 -0.443,0.387 -0.177,1.147 -0.177,1.147 1.378,-1.702 2.25,-1.288 3.668,-0.897 l 1.451,1.459 c -1.541,-0.182 -3.2,-1.559 -4.389,1.982 l 0.292,0.263 c 0.702,-1.261 1.461,-1.744 2.382,-1.797 l 2.165,2.257 c -2.521,-1.755 -2.34,1.498 -2.34,1.498 2.577,0.133 3.109,1.163 3.114,1.669"
       style="fill:#231f20;fill-opacity:1;fill-rule:nonzero;stroke:none"
       id="path48" /></g></svg>